<svg fill="none" height="24" viewBox="0 0 374 64" width="140" xmlns="http://www.w3.org/2000/svg"><path clip-rule="evenodd" d="m32.9807 0c-4.701 0-8.9192 2.88418-10.6198 7.26138l-22.045714 56.73862h16.747114l17.3527-44.6601h.0073c.4354-1.0886 1.5008-1.8576 2.746-1.8576 1.2453 0 2.3106.769 2.7461 1.8576h2.312v-9.0591h-4.2917l3.9946-10.2808z" fill="#2545d3" fill-rule="evenodd"/><path clip-rule="evenodd" d="m22.3621 7.2614c1.6317-4.19927 5.5802-7.024441 10.0491-7.2471948l-.0056-.0142052h.5763 6.4425 2.2165c4.7008 0 8.919 2.88418 10.6198 7.26138l22.0456 56.73862h-17.0335l-21.3781-55.02007c-1.2239-2.69644-3.9424-4.57204-7.0995-4.57204-3.1648 0-5.8889 1.88481-7.1086 4.59192z" fill="#566de8" fill-rule="evenodd"/><g fill="#050506"><path d="m100.843 44.5685 3.268-8.6972h14.428l3.318 8.6972h6.184l-13.121-35.19078h-6.888l-13.1712 35.19078zm10.457-28.957 5.63 15.3331h-11.21z"/><path d="m130.762 36.0724c.151 5.5803 4.877 8.7977 11.764 8.7977 6.234 0 10.909-3.1169 10.909-8.0436 0-5.7311-4.776-6.9376-10.658-7.6414-3.72-.4022-6.183-.7038-6.183-3.1169 0-2.0612 2.111-3.3683 5.329-3.3683 3.217 0 5.429 1.659 5.731 4.0218h5.329c-.352-5.2786-4.827-8.1944-11.161-8.1944-6.183-.0503-10.557 3.1169-10.557 7.9933 0 5.3289 4.625 6.5857 10.507 7.2896 3.971.5027 6.334.7038 6.334 3.4688 0 2.0611-2.212 3.3682-5.58 3.3682-3.921 0-6.234-1.9103-6.435-4.5748z"/><path d="m157.554 36.0724c.151 5.5803 4.876 8.7977 11.764 8.7977 6.233 0 10.909-3.1169 10.909-8.0436 0-5.7311-4.776-6.9376-10.658-7.6414-3.72-.4022-6.184-.7038-6.184-3.1169 0-2.0612 2.112-3.3683 5.329-3.3683 3.218 0 5.43 1.659 5.731 4.0218h5.329c-.352-5.2786-4.826-8.1944-11.16-8.1944-6.184-.0503-10.557 3.1169-10.557 7.9933 0 5.3289 4.625 6.5857 10.507 7.2896 3.971.5027 6.334.7038 6.334 3.4688 0 2.0611-2.212 3.3682-5.58 3.3682-3.922 0-6.234-1.9103-6.435-4.5748z"/><path d="m198.159 44.8701c6.384 0 10.708-3.871 11.613-8.9485h-5.43c-.754 2.8655-3.167 4.5245-6.485 4.5245-4.273 0-7.038-2.8655-7.189-7.2392v-.3519h19.405c.101-.7038.151-1.4076.151-2.0612-.151-7.5409-5.128-12.2665-12.568-12.2665-7.591 0-12.669 5.2786-12.669 13.2217 0 7.8928 5.078 13.1211 13.172 13.1211zm-7.29-15.9866c.402-3.6699 3.368-5.9825 6.837-5.9825 3.771 0 6.435 2.1617 6.888 5.9825z"/><path d="m245.732 18.5273c-4.223 0-7.138 1.8601-8.797 4.6754-1.559-3.318-4.575-4.6754-7.943-4.6754-3.871.0503-6.083 1.7596-7.541 3.6699l-.604-3.3682h-4.725v25.7395h5.429v-13.7747c0-4.5748 2.313-7.5911 6.033-7.5911 3.569 0 5.429 2.3628 5.429 6.8873v14.4785h5.48v-13.9255c0-4.6251 2.363-7.4403 6.083-7.4403 3.519 0 5.379 2.3628 5.379 6.8873v14.4785h5.43v-14.8304c0-8.1442-4.324-11.2108-9.653-11.2108z"/><path d="m275.589 18.5273c-3.971 0-6.636 1.8098-8.345 4.1224v-13.27198h-5.429v35.19078h4.725l.654-3.7202c1.609 2.3126 4.374 4.0218 8.395 4.0218 7.039 0 12.166-5.2786 12.166-13.1714 0-8.2949-5.127-13.1714-12.166-13.1714zm-.904 21.768c-4.525 0-7.491-3.5693-7.491-8.6469 0-4.9769 2.966-8.496 7.491-8.496 4.524 0 7.54 3.5191 7.54 8.5463 0 5.0775-3.016 8.5966-7.54 8.5966z"/><path d="m293.614 44.5685h5.43v-35.19078h-5.43z"/><path d="m313.314 44.7193-1.005 2.5136c-.805 2.1115-1.307 2.6142-3.419 2.6142h-3.82v4.7759h5.831c3.771 0 4.877-1.8601 6.485-6.0327l11.664-29.7613h-5.782l-6.988 19.556-7.189-19.556h-5.781z"/><path d="m335.698 44.5685 3.268-8.6972h14.428l3.318 8.6972h6.184l-13.121-35.19078h-6.888l-13.171 35.19078zm10.457-28.957 5.631 15.3331h-11.211z"/><path d="m368.013 44.5685h5.781v-35.19078h-5.781z"/></g></svg>