<svg xmlns="http://www.w3.org/2000/svg" width="734" height="164" fill="none"><g fill="#000" clip-path="url(#a)"><path d="M54.667 0H82v27.333H54.667zm54.666 0h27.333v27.333h-27.333zm-82 27.333h27.333v27.333H27.333zm54.667 0h27.333v27.333H82zm54.667 0H164v27.333h-27.333z"/><path fill-rule="evenodd" d="M27.333 54.667H0V82h27.333V54.667Zm0 54.666V82H0v27.333h27.333ZM82 54.667H54.667V82H82V54.667Zm0 54.666V82H54.667v27.333H82Z" clip-rule="evenodd"/><path d="M27.333 109.333h27.333v27.333H27.333zm54.667 0h27.333v27.333H82zm54.667 0H164v27.333h-27.333zm-82 27.334H82V164H54.667zm54.666 0h27.333V164h-27.333zm167.995-15.939c12.16 0 18.816-7.552 23.552-22.528h7.04l-2.688 22.656c-8.064 4.48-17.024 7.424-30.464 7.424-26.752 0-43.648-18.56-43.648-44.288 0-29.824 19.968-48.128 45.184-48.128 13.056 0 22.4 3.456 28.544 8.448V64.28h-6.912c-3.456-14.208-10.752-20.992-22.272-20.992-18.944 0-26.752 17.152-26.752 36.992 0 23.168 9.6 40.448 28.416 40.448Zm67.008-3.072c4.992 0 8.448-1.408 12.8-4.48v-22.4l-14.976 5.76c-4.736 1.792-7.424 5.248-7.424 10.112 0 7.04 3.456 11.008 9.6 11.008Zm28.288-37.12c0 3.072-.384 25.728-.384 29.696 0 5.12 1.664 8.064 5.248 8.064 1.152 0 3.968-.256 5.888-.768l.768 4.096c-4.352 4.352-9.216 6.656-14.592 6.656-6.784 0-10.496-4.736-12.032-11.648-4.48 5.376-11.392 11.52-21.12 11.52-11.392 0-17.28-7.68-17.28-17.536 0-11.776 9.088-15.872 17.664-18.816l20.352-7.296V77.72c0-8.32-2.56-13.952-11.008-13.952-6.272 0-9.344 3.072-9.344 8.96 0 2.432.256 4.608.896 7.296l-11.264 1.664c-2.432-1.664-3.584-4.096-3.584-7.552 0-11.136 10.88-17.024 25.6-17.024 15.744 0 24.192 7.04 24.192 23.424Zm41.569-23.68v20.992c7.296-15.616 11.136-20.736 19.328-20.736 2.304 0 3.968.768 4.992 1.664v14.08h-2.816c-7.936 0-13.952 1.024-21.504 9.216v31.616c0 6.144 3.072 6.528 11.776 7.552V127h-36.48v-5.76c5.632-.768 9.216-1.408 9.216-7.296V72.216l-8.576-5.504v-3.2l20.352-6.656h3.712Zm53.672-13.568v15.104h18.816v7.68h-18.816v43.136c0 6.784 2.944 9.216 9.472 9.216 3.584 0 7.808-1.024 11.008-2.688l1.664 3.968c-4.864 5.248-11.904 8.576-20.736 8.576-10.24 0-16.768-4.864-16.768-16.64V66.072h-9.216v-4.864c7.168-3.712 14.08-9.728 19.968-17.92h4.608Zm59.499 13.824c17.408 0 26.496 12.288 26.496 28.8v4.224h-44.672c0 15.488 8.704 25.856 22.272 25.856 9.088 0 15.104-4.224 19.712-10.368l2.816 1.664c-3.2 12.416-12.928 20.992-27.904 20.992-18.816 0-30.72-14.208-30.72-33.408 0-22.656 13.824-37.76 32-37.76Zm-2.048 7.04c-9.216 0-14.72 9.088-15.744 19.456h29.824c0-11.776-4.736-19.456-14.08-19.456Zm64.514 64.128c-9.216 0-17.92-2.048-24.192-6.656l-.768-16.512h6.656c2.432 10.496 8.448 16.64 18.688 16.64 7.552 0 12.416-3.456 12.416-9.6 0-7.296-5.12-9.856-16.64-13.056-12.928-3.712-20.48-9.088-20.48-21.248 0-12.544 9.216-20.736 23.68-20.736 8.832 0 16.128 2.176 21.76 5.504v15.36h-6.528c-1.92-9.344-7.04-14.208-15.744-14.208-6.656 0-10.496 3.968-10.496 9.216 0 6.272 4.224 9.6 14.72 12.416 13.184 3.584 22.272 8.064 22.272 21.504 0 12.672-9.472 21.376-25.344 21.376Zm59.738-71.168v56.832c0 5.888 3.456 6.528 9.216 7.296V127h-33.92v-5.76c5.632-.768 9.216-1.408 9.216-7.296V71.96l-8.576-5.376v-3.072l20.48-6.4h3.584Zm-8.192-7.68c-5.76 0-9.856-4.352-9.856-9.6 0-5.248 4.096-9.6 9.856-9.6 5.632 0 9.728 4.352 9.728 9.6 0 5.248-4.096 9.6-9.728 9.6Zm51.835 68.224c4.992 0 8.448-1.408 12.8-4.48v-22.4l-14.976 5.76c-4.736 1.792-7.424 5.248-7.424 10.112 0 7.04 3.456 11.008 9.6 11.008Zm28.288-37.12c0 3.072-.384 25.728-.384 29.696 0 5.12 1.664 8.064 5.248 8.064 1.152 0 3.968-.256 5.888-.768l.768 4.096c-4.352 4.352-9.216 6.656-14.592 6.656-6.784 0-10.496-4.736-12.032-11.648-4.48 5.376-11.392 11.52-21.12 11.52-11.392 0-17.28-7.68-17.28-17.536 0-11.776 9.088-15.872 17.664-18.816l20.352-7.296V77.72c0-8.32-2.56-13.952-11.008-13.952-6.272 0-9.344 3.072-9.344 8.96 0 2.432.256 4.608.896 7.296l-11.264 1.664c-2.432-1.664-3.584-4.096-3.584-7.552 0-11.136 10.88-17.024 25.6-17.024 15.744 0 24.192 7.04 24.192 23.424Z"/></g><defs><clipPath id="a"><path fill="#000" d="M0 0h734v164H0z"/></clipPath></defs></svg>