<svg fill="none" height="9" viewBox="0 0 70 9" width="70" xmlns="http://www.w3.org/2000/svg"><path d="m1.87 6.282c0 .804-1.433995.804-1.433995 0v-3.62c0-.803 1.433995-.803 1.433995 0zm2.869 1.81c-.002.802-1.432.802-1.435 0v-7.239c.002-.8019999 1.432-.8019999 1.435 0zm2.86801-1.81c-.002.802-1.431.802-1.434 0v-3.62c.002-.801 1.432-.801 1.434 0zm2.86899 1.81c0 .804-1.434.804-1.434 0v-7.239c0-.804 1.434-.804 1.434 0zm2.869-1.81c0 .804-1.435.804-1.435 0v-3.62c0-.803 1.435-.803 1.435 0z" fill="#3e3ef4"/><path d="m19.41 8.4622c2.106 0 3.186-1.397 3.471-2.55l-1.365-.413c-.201.698-.825 1.534-2.106 1.534-1.207 0-2.328-.878-2.328-2.476 0-1.704 1.185-2.508 2.307-2.508 1.302 0 1.884.793 2.064 1.513l1.375-.434c-.296-1.217-1.365-2.486997-3.44-2.486997-2.01 0-3.82 1.523997-3.82 3.915997s1.746 3.905 3.842 3.905zm5.88-.15v-7.661997h-1.408v7.661997zm2.53-3.2c.032-.476.434-1.027 1.164-1.027.805 0 1.143.508 1.164 1.027zm2.466 1.355c-.17.465-.53.793-1.185.793-.699 0-1.281-.497-1.313-1.185h3.726c0-.021.02-.233.02-.434 0-1.672-.962-2.698-2.57-2.698-1.334 0-2.562 1.079-2.562 2.74 0 1.757 1.26 2.784 2.688 2.784 1.28 0 2.106-.751 2.37-1.651zm2.044.425c0 .815.677 1.566 1.789 1.566.772 0 1.27-.36 1.534-.772 0 .2.021.487.053.624h1.291c-.0405-.27315-.0616-.54885-.063-.825v-2.562c0-1.047-.614-1.979-2.265-1.979-1.397 0-2.148.9-2.233 1.715l1.249.264c.042-.455.38-.846.995-.846.592 0 .878.307.878.677 0 .18-.095.328-.392.37l-1.28.191c-.868.127-1.556.646-1.556 1.577zm2.085.519c-.455 0-.677-.297-.677-.604 0-.402.285-.603.645-.656l1.175-.18v.233c0 .92-.55 1.207-1.143 1.207zm5.345-2.099c0-.603.36-1.08.974-1.08.677 0 .963.456.963 1.038v3.037h1.407v-3.28c0-1.144-.592-2.064-1.883-2.064-.561 0-1.186.243-1.503.783v-.646h-1.365v5.207h1.407zm9.59-2.212h-1.482l-1.238 3.493-1.29-3.493h-1.545l2.127 5.207h1.407zm3.04 4.082c-.688 0-1.323-.508-1.323-1.482 0-.984.635-1.481 1.323-1.481s1.323.497 1.323 1.481c0 .985-.635 1.482-1.323 1.482zm0-4.244c-1.556 0-2.73 1.154-2.73 2.762 0 1.598 1.174 2.763 2.73 2.763s2.73-1.165 2.73-2.763c0-1.608-1.174-2.762-2.73-2.762zm5.25 5.374v-5.207h-1.408v5.207zm-1.577-6.91c.0037.22796.0967.44537.259.60546.1623.16008.381.25005.609.25054.2287.00133.4486-.08818.6113-.24887.1628-.16069.2551-.37942.2567-.60813 0-.2302-.0915-.450984-.2542-.613766-.1628-.162781-.3836-.254231-.6138-.254231s-.451.09145-.6138.254231c-.1628.162782-.2542.384566-.2542.614766zm5.417 2.84c.698 0 1.027.445 1.154.878l1.259-.423c-.222-.878-1.027-1.757-2.445-1.757-1.513 0-2.698 1.154-2.698 2.762 0 1.599 1.206 2.763 2.74 2.763 1.387 0 2.202-.89 2.435-1.757l-1.238-.413c-.0706.26017-.2273.48873-.4445.64837s-.4821.24094-.7515.23063c-.72 0-1.334-.53-1.334-1.472 0-.941.604-1.46 1.323-1.46zm4.45.87c.032-.476.434-1.027 1.164-1.027.805 0 1.143.508 1.164 1.027zm2.466 1.355c-.17.465-.53.793-1.185.793-.699 0-1.281-.497-1.313-1.185h3.726c0-.021.02-.233.02-.434 0-1.672-.962-2.698-2.57-2.698-1.334 0-2.562 1.079-2.562 2.74 0 1.757 1.26 2.784 2.688 2.784 1.28 0 2.106-.751 2.37-1.651z" fill="#000"/></svg>