<svg fill="none" height="36" viewBox="0 0 187 36" width="187" xmlns="http://www.w3.org/2000/svg" xmlns:xlink="http://www.w3.org/1999/xlink"><clipPath id="a"><path d="m0 0h187v36h-187z"/></clipPath><g clip-path="url(#a)"><path clip-rule="evenodd" d="m21.4133 4.14971c2.6522 2.67694 4.0785 6.21529 4.0224 9.96209v-.0046c-.1164 7.5445-6.4975 13.6811-14.221 13.6811h-10.851132c-.205089 0-.3076344-.2455-.163139-.3937l5.281051-5.2751c.08857-.088.2051-.139.33095-.139h5.50477c4.4281 0 8.1384-3.5198 8.2689-7.8409.0652-2.2045-.7505-4.28865-2.298-5.87258-1.5474-1.58393-3.6216-2.45465-5.8357-2.45465h-5.60269v8.99413c0 .0788-.06059.139-.13983.139h-5.570046c-.0792392 0-.139834-.0602-.139834-.139v-14.667564c0-.0787338.0605948-.138936.139834-.138936h11.312566c3.7709 0 7.3087 1.47278 9.9609 4.14971zm15.9037 3.3021c-6.8238 0-9.9374 5.19639-9.9374 10.27239l-.0047.0047c0 5.0389 3.5145 10.3511 10.3383 10.3511 4.8849 0 8.6792-2.7046 9.5459-6.9286.0187-.0879-.0512-.1713-.1398-.1713h-5.1504c-.0606 0-.112.0417-.1307.1019-.4708 1.6395-1.9343 2.4778-4.125 2.4778-2.7919 0-4.5866-1.7461-4.9875-4.5619h14.3191c.0745 0 .1351-.051.1397-.1251.0374-.4261.0702-.9772.0702-1.6626 0-4.562-3.1138-9.75839-9.9377-9.75839zm0 4.04319c2.6755 0 4.2323 1.7831 4.3908 4.0062h-8.9029c.4802-2.7789 1.9998-4.0062 4.5121-4.0062zm12.3708 6.2292c0-5.076 3.1135-10.27239 9.9374-10.27239 6.8238 0 9.9376 5.19639 9.9376 9.75839 0 .6854-.0327 1.2365-.0701 1.6626-.0044.0741-.0652.1251-.1398.1251h-14.3188c.4006 2.8158 2.1954 4.5619 4.9873 4.5619 2.1907 0 3.6544-.8383 4.1252-2.4778.0185-.0602.0699-.1019.1304-.1019h5.1505c.0886 0 .1585.0834.14.1713-.867 4.224-4.6612 6.9286-9.5461 6.9286-6.8239 0-10.3383-5.3122-10.3383-10.3511zm14.3281-2.223c-.1584-2.2231-1.7152-4.0062-4.3907-4.0062-2.5124 0-4.032 1.2273-4.5119 4.0062zm14.0442-7.72982h-5.2671v-.00927c-.0792 0-.14.06023-.14.13896v27.80213c0 .0787.0608.1391.14.1391h5.2671c.079 0 .1398-.0604.1398-.1391v-9.7351c1.0767 1.3478 3.0343 2.1026 5.3089 2.1026 5.7891 0 9.6999-4.0849 9.6999-10.3094 0-6.2246-3.5939-10.30949-9.2616-10.30949-2.5963 0-4.5495.95407-5.7472 2.50096v-2.04245c0-.07872-.0608-.13894-.1398-.13894zm9.6392 9.99452c0 3.33-1.953 5.553-4.9083 5.553-2.9504 0-4.9081-2.186-4.9081-5.553s1.9577-5.5901 4.9081-5.5901c2.9506 0 4.9083 2.2602 4.9083 5.5901zm13.6197 13.8944c.089-.0881.205-.1345.331-.1345h5.659c1.715 0 2.913-1.3476 2.913-3.1724v-2.6167c-1.04 1.4682-3.156 2.3389-5.51 2.3389-5.9472 0-9.4991-4.085-9.4991-10.3096s3.5518-10.30943 9.4201-10.30943c2.475 0 4.428.91239 5.589 2.3018v-1.84329c0-.07874.06-.13896.14-.13896h5.267c.079 0 .14.06022.14.13896v21.04032c0 4.1265-2.993 6.9008-7.542 6.9008h-10.5483c-.2096 0-.3122-.2501-.1631-.3936l3.8034-3.7931zm4.274-8.3458c3.035 0 4.95-2.1815 4.95-5.5531s-1.915-5.5901-4.95-5.5901c-3.034 0-4.908 2.2231-4.908 5.5901s1.958 5.5531 4.908 5.5531zm19.81 4.3024v-9.5776h.005c0-3.4134 1.235-5.6735 3.99-5.6735h3.174c.079 0 .14-.0602.14-.1389v-4.32111c0-.07874-.061-.13894-.14-.13894h-2.098c-2.475 0-3.994.829-5.071 3.32995v-3.19101c0-.07874-.06-.13894-.14-.13894h-5.267c-.079 0-.14.0602-.14.13894v19.71111c0 .0787.061.1391.14.1391h5.267c.08 0 .14-.0604.14-.1391zm9.085-5.5298c0-3.9274 2.955-6.3079 7.383-6.3079h3.351c.998 0 1.515-.6345 1.515-1.4682 0-1.6673-1.277-2.8159-3.552-2.8159-2.274 0-3.645 1.4311-3.747 3.0428 0 .0742-.061.1297-.135.1297h-4.666c-.084 0-.149-.0694-.145-.1528.275-3.9367 3.533-7.06749 8.973-7.06749 5.109 0 8.819 2.93629 8.819 7.45649v12.7084c0 .0788-.061.1392-.14.1392h-5.267c-.079 0-.14-.0604-.14-.1392v-2.6352c-.68 1.8618-2.913 3.0939-5.668 3.0939-3.873 0-6.586-2.5796-6.586-5.9884zm8.021 1.9823c2.676 0 4.233-1.9823 4.233-4.5203v-.2779h-4.032c-1.715 0-2.876 1.0328-2.876 2.5797 0 1.3107 1.119 2.2231 2.675 2.2231zm18.566-16.29802h-5.267l.009-.00462c-.079 0-.14.06022-.14.13893v19.71121c0 .0787.061.1389.14.1389h5.267c.079 0 .14-.0602.14-.1389v-11.2033c0-2.5797 1.473-4.2841 3.789-4.2841 2.154 0 3.552 1.7044 3.552 4.2841v11.2033c0 .0787.061.1389.14.1389h5.267c.079 0 .14-.0602.14-.1389v-11.2033c0-2.5797 1.473-4.2841 3.79-4.2841 2.153 0 3.551 1.7044 3.551 4.2841v11.2033c0 .0787.061.1389.14.1389h5.267c.079 0 .14-.0602.14-.1389v-12.9494c0-4.0015-2.834-7.21569-7.183-7.21569-3.23 0-5.747 1.70436-6.745 3.64959-.96-2.38057-2.997-3.64959-6.147-3.64959-2.718 0-4.634 1.31068-5.71 3.13549v-2.67698c0-.07872-.061-.13894-.14-.13894z" fill="#000" fill-rule="evenodd"/></g></svg>