<svg fill="none" height="175" viewBox="0 0 436 175" width="436" xmlns="http://www.w3.org/2000/svg"><g fill="#000"><path d="m436.001 23.4839v127.8931c0 20.289-.228 21.201-2.733 21.201h-30.972c-2.505 0-2.96-.912-2.96-21.201v-127.8931c0-20.2896.455-21.20149 2.96-21.20149h30.972c2.505 0 2.733.91189 2.733 21.20149z"/><path d="m349.164 98.257v-4.7874c0-11.3987-5.238-15.9581-14.348-15.9581-8.881 0-13.664 4.7874-15.03 13.2224-.455 2.5077-.228 4.5595-1.594 4.5595h-30.744c-1.822 0-1.822-.456-1.822-2.0518 0-12.0825 11.387-37.1596 51.012-37.1596 28.011 0 48.052 11.1707 48.052 42.175v45.595c0 10.486 5.693 25.305 5.693 27.356 0 .912-.683 1.368-1.366 1.368h-34.16c-1.594 0-1.822-.912-2.961-6.611l-.911-4.331c-.683-3.42-1.138-4.56-2.505-4.56-1.822 0-2.96 4.104-7.97 8.891-5.466 5.015-12.07 8.435-23.457 8.435-18.446 0-35.071-10.487-35.071-33.284 0-25.533 19.813-36.476 49.191-37.616 15.258-.684 17.991.912 17.991-5.243zm0 33.056v-4.559c0-4.56-1.139-5.928-5.011-5.7l-8.426.456c-10.703.684-17.08 6.156-17.08 16.414 0 10.031 5.466 15.047 13.437 15.047 8.881 0 17.08-8.207 17.08-21.658z"/><path d="m220.001 85.9458c0-4.3315-1.822-4.7874-10.248-4.7874h-4.099c-1.594 0-1.822-1.1399-1.822-10.4868v-1.5958c0-9.3469.228-10.2588 1.822-10.2588h4.782c8.426 0 9.565-.6839 9.565-4.7874v-14.1343c0-26.6729 13.436-39.8953 39.398-39.8953 10.248 0 17.307 1.5958 18.446 2.27973.456.45594.456 1.13986.456 9.57487v2.9636c0 8.663 0 10.7148-.684 10.7148-.683 0-3.871-2.0518-9.337-2.0518-7.287 0-11.842 3.6476-11.842 16.4141v14.1343c0 4.1035 1.594 4.7874 11.842 4.7874h10.248c2.05 0 2.05.9119 2.05 10.2588v1.5958c0 9.3469-.228 10.4868-1.822 10.4868h-10.476c-10.248 0-11.842.4559-11.842 4.7874v65.4282c0 20.29-.683 21.202-2.505 21.202h-31.655c-1.822 0-2.277-.912-2.277-21.202z"/><path clip-rule="evenodd" d="m109.571 2.69c2.944 0 5.303 2.39348 5.584 5.32352 2.51 26.13548 23.311 46.93448 49.448 49.44448 2.931.2814 5.324 2.6405 5.324 5.584v49.213c0 2.943-2.393 5.302-5.324 5.584-26.137 2.51-46.938 23.309-49.448 49.444-.281 2.93-2.64 5.324-5.584 5.324h-49.2157c-2.9437 0-5.3029-2.394-5.5844-5.324-2.5101-26.135-23.3108-46.934-49.44801-49.444-2.93023-.282-5.32386656-2.641-5.32386656-5.584v-49.213c0-2.9435 2.39364656-5.3026 5.32387656-5.584 26.1372-2.51 46.9379-23.309 49.448-49.44449.2815-2.93003 2.6407-5.32351 5.5844-5.32351zm-75.4528 84.8145c0 28.2715 22.8942 51.1895 51.1357 51.1895 28.2411 0 51.1361-22.918 51.1361-51.1895 0-28.2713-22.895-51.1898-51.1361-51.1898-28.2415 0-51.1357 22.9185-51.1357 51.1898z" fill-rule="evenodd"/></g></svg>