<svg fill="none" height="140" viewBox="0 0 550 140" width="550" xmlns="http://www.w3.org/2000/svg"><g clip-rule="evenodd" fill="#000" fill-rule="evenodd"><path d="m456.319 116.667v-67.8785h15.997v67.8785zm8.042-77.5121c-2.533 0-4.714-.84-6.54-2.52-1.826-1.708-2.739-3.7551-2.739-6.1429 0-2.4158.913-4.4629 2.739-6.1413 1.826-1.7096 4.007-2.5636 6.54-2.5636 2.563 0 4.744.854 6.541 2.5636 1.826 1.6784 2.739 3.7255 2.739 6.1413 0 2.3878-.913 4.4349-2.739 6.1429-1.797 1.68-3.978 2.52-6.541 2.52zm-271.928 73.1381c6.304 3.741 13.611 5.612 21.919 5.612 5.715 0 10.651-1.017 14.804-3.05 4.153-2.062 7.821-4.994 11.004-8.794h.485l1.194 10.606h11.755v-47.3732h-37.519v12.8147h21.377c-.115 3.9589-1.054 7.4793-2.816 10.5622-1.855 3.2994-4.508 5.8769-7.955 7.7343-3.447 1.856-7.527 2.783-12.24 2.783-5.039 0-9.472-1.223-13.302-3.6682-3.83-2.4733-6.835-6.0837-9.016-10.8266-2.15-4.7429-3.226-10.5327-3.226-17.3678 0-6.776 1.106-12.5207 3.315-17.234 2.238-4.7429 5.289-8.3378 9.148-10.7831 3.859-2.4454 8.233-3.668 13.124-3.668 2.711 0 5.23.3531 7.557 1.0609 2.357.6782 4.478 1.694 6.364 3.0489 1.885 1.3253 3.49 2.9462 4.817 4.8611 1.326 1.9149 2.327 4.0662 3.004 6.4524h16.705c-.678-4.4489-2.136-8.5151-4.374-12.1971-2.21-3.682-5.038-6.8647-8.486-9.5449-3.447-2.6818-7.365-4.7444-11.755-6.188-4.36-1.4731-9.044-2.2089-14.053-2.2089-5.922 0-11.416 1.0609-16.482 3.1811-5.068 2.0923-9.502 5.1567-13.304 9.1918-3.8 4.0071-6.76 8.8838-8.882 14.6284-2.12 5.7447-3.181 12.2703-3.181 19.5767 0 9.5449 1.767 17.794 5.303 24.7474 3.536 6.9239 8.44 12.2699 14.716 16.0429zm91.116-86.1316h-15.997v73.668c0 5.9216 1.562 10.3276 4.684 13.2146 3.123 2.887 7.925 4.242 14.407 4.064 2.032-.059 3.741-.22 5.126-.485 1.414-.266 2.593-.546 3.536-.84l-2.653-12.108c-.441.118-.942.235-1.502.353-.531.088-1.326.148-2.387.177-1.944.059-3.299-.457-4.064-1.548-.767-1.089-1.15-2.9007-1.15-5.4347zm43.677 91.6986c-5.332 0-10.105-1.369-14.319-4.11-4.212-2.739-7.541-6.717-9.986-11.931-2.446-5.2158-3.668-11.5501-3.668-19.0027 0-7.5429 1.236-13.9067 3.711-19.0914 2.505-5.2142 5.879-9.1482 10.121-11.7989 4.242-2.6817 8.971-4.0211 14.185-4.0211 3.977 0 7.247.6767 9.811 2.0316 2.563 1.3269 4.596 2.9322 6.099 4.8176 1.501 1.8557 2.666 3.6088 3.491 5.2593h.662v-11.2249h16.043v67.8785h-15.733v-10.695h-.972c-.825 1.651-2.018 3.404-3.58 5.26-1.561 1.826-3.624 3.388-6.188 4.683-2.562 1.298-5.788 1.945-9.677 1.945zm4.463-13.124c3.388 0 6.275-.914 8.661-2.741 2.387-1.856 4.199-4.4336 5.437-7.7329 1.237-3.2994 1.856-7.1447 1.856-11.5345s-.619-8.2055-1.856-11.4458c-1.209-3.2402-3.005-5.7602-5.391-7.5569-2.357-1.7966-5.26-2.6957-8.707-2.6957-3.564 0-6.539.9286-8.926 2.7844s-4.184 4.4193-5.391 7.6891c-1.209 3.2698-1.812 7.0125-1.812 11.2249 0 4.242.603 8.0282 1.812 11.3571 1.236 3.2994 3.049 5.9065 5.435 7.8233 2.416 1.885 5.376 2.828 8.882 2.828zm58.36 9.014c4.212 2.741 8.985 4.11 14.319 4.11 3.889 0 7.113-.647 9.677-1.945 2.563-1.295 4.626-2.857 6.186-4.683 1.562-1.856 2.755-3.609 3.581-5.26h.972v10.695h15.732v-90.5056h-16.041v33.852h-.663c-.826-1.6505-1.989-3.4036-3.492-5.2594-1.503-1.8853-3.536-3.4906-6.098-4.8175-2.563-1.3549-5.833-2.0316-9.811-2.0316-5.214 0-9.943 1.3393-14.185 4.0211-4.243 2.6507-7.616 6.5847-10.12 11.7989-2.475 5.1847-3.712 11.5485-3.712 19.0914 0 7.4526 1.223 13.7868 3.668 19.0027 2.444 5.214 5.774 9.192 9.987 11.931zm27.443-11.755c-2.386 1.827-5.273 2.741-8.661 2.741-3.507 0-6.467-.943-8.883-2.828-2.386-1.9169-4.198-4.524-5.436-7.8233-1.207-3.3289-1.811-7.1151-1.811-11.3571 0-4.2124.604-7.9551 1.811-11.2249 1.208-3.2698 3.005-5.8333 5.391-7.6891s5.362-2.7845 8.928-2.7845c3.447 0 6.348.8992 8.704 2.6958 2.388 1.7967 4.185 4.3167 5.392 7.5569 1.238 3.2402 1.857 7.056 1.857 11.4458s-.619 8.2351-1.857 11.5344c-1.237 3.2994-3.049 5.877-5.435 7.733zm80.901 11.755c4.213 2.741 8.985 4.11 14.319 4.11 3.889 0 7.114-.647 9.677-1.945 2.564-1.295 4.627-2.857 6.187-4.683 1.562-1.856 2.755-3.609 3.581-5.26h.972v10.695h15.731v-67.8785h-16.041v11.2249h-.662c-.826-1.6505-1.99-3.4036-3.493-5.2593-1.502-1.8854-3.535-3.4907-6.097-4.8176-2.564-1.3549-5.834-2.0316-9.811-2.0316-5.214 0-9.943 1.3394-14.185 4.0211-4.244 2.6507-7.616 6.5847-10.121 11.7989-2.475 5.1847-3.711 11.5485-3.711 19.0914 0 7.4526 1.222 13.7869 3.668 19.0027 2.443 5.214 5.774 9.192 9.986 11.931zm27.443-11.755c-2.386 1.827-5.273 2.741-8.661 2.741-3.506 0-6.466-.943-8.882-2.828-2.386-1.9168-4.199-4.5239-5.437-7.8233-1.207-3.3289-1.81-7.1151-1.81-11.3571 0-4.2124.603-7.9551 1.81-11.2249 1.209-3.2698 3.006-5.8333 5.392-7.6891s5.362-2.7844 8.927-2.7844c3.447 0 6.348.8991 8.705 2.6957 2.388 1.7967 4.184 4.3167 5.392 7.5569 1.238 3.2403 1.857 7.056 1.857 11.4458s-.619 8.2351-1.857 11.5345c-1.237 3.2993-3.049 5.8769-5.436 7.7329z"/><path d="m73.1956 49.2705h-4.6283l-.0053.0053c-8.9249 0-17.4859-3.5472-23.7997-9.8605l-24.4578-28.4259h14.2488c3.6919 0 7.2073 1.5944 9.6472 4.3712l20.2629 23.0649v-38.4255h13.5746v37.5855l19.5245-22.2356c2.4345-2.7715 5.9495-4.3658 9.6475-4.3658h14.259l-24.4737 28.4259c-6.3138 6.3133-14.8748 9.8605-23.7997 9.8605zm-4.6176 41.4484h4.6283v.0053c8.9249 0 17.4859 3.5472 23.7997 9.8608l24.458 28.426h-14.249c-3.692 0-7.207-1.589-9.6472-4.366l-20.2575-23.07v38.425h-13.5746v-37.596l-19.5245 22.235c-2.4346 2.772-5.9499 4.366-9.6472 4.366h-14.2595l24.4738-28.426c6.3138-6.3129 14.8748-9.8601 23.7997-9.8601zm-56.6923 15.6071v14.247l28.428-24.4557c6.3138-6.3133 9.8613-14.8737 9.8613-23.7979v-4.628c0-8.9242-3.5475-17.4846-9.8613-23.7979l-28.428-24.4775v14.2585c0 3.697 1.5945 7.2121 4.3715 9.6465l22.2373 19.5231h-37.598992v13.5735h38.428392l-23.072 20.2561c-2.777 2.4397-4.3715 5.9553-4.3715 9.6463zm90.5763-42.7597h38.428.006v13.5736h-37.599l22.237 19.5231c2.771 2.4344 4.366 5.949 4.366 9.647v14.258l-28.428-24.4721c-6.3138-6.3133-9.8613-14.8737-9.8613-23.7979v-4.628c0-8.9242 3.5475-17.4846 9.8613-23.7979l28.428-24.456v14.2477c0 3.6917-1.589 7.2068-4.366 9.6465z"/></g></svg>