<svg enable-background="new 0 0 894.2 304.8" viewBox="0 0 894.2 304.8" xmlns="http://www.w3.org/2000/svg"><path d="m499.3.5c-57.6 0-104.4 46.7-104.4 104.4s46.7 104.4 104.4 104.4 104.4-46.7 104.4-104.4c-.1-57.6-46.8-104.3-104.4-104.4zm0 169.6c-36 0-65.2-29.2-65.2-65.2s29.2-65.2 65.2-65.2 65.2 29.2 65.2 65.2c0 36-29.2 65.2-65.2 65.2z"/><path d="m355.2.9c-3.6-.4-7.1-.6-10.7-.6-1.8 0-3.5 0-5.2.1s-3.5.2-5.2.3c-7 .5-14 1.7-20.8 3.6-13.9 3.7-27 10.3-38.3 19.2-11.6 9.2-20.8 21-27.1 34.4-3.1 6.7-5.4 13.8-6.9 21-.7 3.6-1.2 7.2-1.6 10.8-.1 1.8-.3 3.6-.3 5.4l-.1 2.7v2.5l.1 35 .1 34.9.2 34.9h39.1l.2-34.9.1-34.9.1-35v-2-1.7c0-1.1.2-2.2.2-3.3.2-2.2.6-4.3 1-6.5.9-4.2 2.2-8.3 4-12.2 3.6-7.8 9-14.6 15.7-20 7-5.6 15.1-9.7 23.7-12 4.4-1.2 9-2 13.6-2.4 1.2-.1 2.3-.2 3.5-.2s2.4-.1 3.5-.1c2.2 0 4.5.1 6.7.3 8.9.9 17.5 3.6 25.4 8l19.5-33.9c-12.4-7.2-26.2-11.8-40.5-13.4z"/><path d="m105.3 0c-57.6-.5-104.8 45.8-105.3 103.4s45.8 104.8 103.4 105.3h36.2v-39.1h-34.3c-36 .4-65.6-28.4-66-64.5s28.4-65.6 64.5-66h1.5c36 0 65.2 29.2 65.4 65.2v96.1c0 35.7-29.1 64.8-64.7 65.2-17.1-.1-33.4-7-45.4-19.1l-27.7 27.7c19.2 19.3 45.2 30.3 72.4 30.5h1.4c56.9-.8 102.6-47 102.9-103.9v-99.1c-1.4-56.5-47.7-101.6-104.3-101.7z"/><path d="m729.7.5c-57.6 0-104.4 46.7-104.3 104.4 0 57.6 46.7 104.3 104.3 104.3h35.7v-39.1h-35.7c-36 0-65.2-29.2-65.2-65.2s29.2-65.2 65.2-65.2c33.8 0 62 25.9 65 59.6h-.1v200.4h39.1v-194.8c0-57.6-46.5-104.4-104-104.4z"/><path d="m894.2 15.2c0 8.6-6.7 15.3-15.3 15.3s-15.2-6.7-15.2-15.2 6.7-15.3 15.3-15.3c8.7 0 15.2 6.6 15.2 15.2zm-1.6 0c0-7.7-5.8-13.6-13.6-13.6s-13.7 6-13.7 13.6 5.9 13.6 13.6 13.6c7.8.1 13.7-6 13.7-13.6zm-9.8 2.5 4.1 6.2h-2.3l-3.8-5.8c-.4 0-.6 0-1 0h-4.5v5.9h-2.3v-17.5h6.7c4.3 0 6.9 2.2 6.9 5.8.1 2.7-1.4 4.6-3.8 5.4zm1.7-5.4c0-2.5-1.8-3.9-4.8-3.9h-4.4v7.9h4.4c3 0 4.8-1.5 4.8-4z"/></svg>