<svg fill="none" height="81" viewBox="0 0 559 81" width="559" xmlns="http://www.w3.org/2000/svg" xmlns:xlink="http://www.w3.org/1999/xlink"><linearGradient id="a" gradientUnits="userSpaceOnUse" x1="-2.17902" x2="99.9791" y1="11.969" y2="84.1408"><stop offset=".184" stop-color="#fa242d"/><stop offset=".958" stop-color="#ef5b3c"/></linearGradient><clipPath id="b"><path d="m0 0h559v81h-559z"/></clipPath><mask id="c" height="81" maskUnits="userSpaceOnUse" width="559" x="0" y="0"><path d="m0 0h559v81h-559z" fill="#fff"/></mask><g clip-path="url(#b)"><g mask="url(#c)"><path d="m146.133 16.6039h-5.286v31.1877c0 5.184-1.404 9.072-4.212 11.6646-2.752 2.592-6.469 3.888-11.149 3.888-4.185 0-7.46-.9101-9.828-2.7301-2.312-1.875-4.047-4.1087-5.203-6.7007l6.442-4.8812c1.046 2.3718 2.202 3.9434 3.469 4.7159 1.321.7165 2.752 1.0753 4.294 1.0753 2.478 0 4.267-.6344 5.368-1.9027 1.101-1.3237 1.652-3.0062 1.652-5.0464v-31.2704h-9.91v-7.85916h24.363zm8.924 1.0753v-9.76132h9.002v9.76082zm14.783 44.8376h-19.821v-6.7834h5.534v-23.4943h-5.864v-6.866h14.618v30.3603h5.533zm46.662-30.2777h-5.368v28.8713c0 5.9011-1.652 10.6719-4.955 14.3115-3.249 3.6401-8.121 5.4601-14.618 5.4601-3.855 0-7.461-.8274-10.819-2.4816-3.359-1.6548-5.727-4.4952-7.103-8.5208l6.855-3.7227c2.312 5.0736 6.056 7.6107 11.232 7.6107 3.083 0 5.616-1.103 7.598-3.309s2.973-5.3498 2.973-9.4308v-5.5428c-1.046 1.9853-2.56 3.695-4.542 5.1291-1.928 1.3786-4.598 2.0679-8.011 2.0679-4.35 0-8.122-1.5167-11.315-4.5495-3.139-3.0884-4.708-7.5559-4.708-13.402 0-5.2944 1.404-9.9543 4.212-13.9804 2.863-4.0815 6.993-6.1218 12.389-6.1218 5.616 0 9.607 2.1784 11.975 6.5355v-5.7912h14.205zm-14.205 12.574v-2.978c0-3.0877-.881-5.5428-2.643-7.3623-1.762-1.82-3.964-2.73-6.607-2.73-3.083 0-5.451 1.1307-7.102 3.3922-1.652 2.2055-2.478 5.2112-2.478 9.0165 0 3.9157.826 6.8116 2.478 8.6861 1.651 1.82 3.743 2.73 6.276 2.73 3.139 0 5.588-1.103 7.351-3.309 1.816-2.206 2.725-4.6882 2.725-7.4455zm50.095 6.6186c0 3.8603-1.596 6.8111-4.79 8.8513-3.138 2.0408-7.157 3.0612-12.057 3.0612-2.643 0-5.314-.3034-8.011-.91-2.643-.6067-5.038-1.5168-7.186-2.7301l1.322-9.5961 6.937.6616-.082 4.798c1.057.4447 2.167.7505 3.303.9101 1.212.1658 2.285.2484 3.221.2484 2.257 0 4.212-.386 5.864-1.1585 1.707-.8268 2.56-2.0402 2.56-3.6395 0-1.5445-.771-2.6475-2.313-3.3091-1.486-.6621-3.358-1.1579-5.615-1.4895-2.258-.386-4.515-.8823-6.773-1.489-2.257-.6616-4.157-1.7097-5.698-3.1432-1.487-1.4896-2.23-3.6956-2.23-6.6181 0-4.3017 1.624-7.2525 4.873-8.8518 3.303-1.5994 6.772-2.3991 10.406-2.3991 4.79 0 9.305 1.1308 13.544 3.3917l.908 9.1829-6.937.8269-.743-5.5428c-2.147-.8269-4.322-1.2406-6.525-1.2406-1.707 0-3.166.3588-4.377 1.0753-1.156.6616-1.734 1.7374-1.734 3.2264 0 1.5439.743 2.6198 2.23 3.2264 1.486.6067 3.331 1.1031 5.533 1.489 2.235.3384 4.443.8362 6.607 1.4896 2.203.6061 4.047 1.6542 5.534 3.1432 1.486 1.4335 2.229 3.6124 2.229 6.5354zm8.521-23.3291c2.753-1.3237 5.203-2.2332 7.351-2.73 2.147-.4964 4.625-.7448 7.433-.7448 4.129 0 7.515 1.0481 10.158 3.1443 2.698 2.0957 4.047 5.2389 4.047 9.4303v16.711c0 2.206.908 3.309 2.725 3.309.496 0 1.129-.1103 1.9-.331l.082 4.8806c-1.817 1.0481-3.799 1.5722-5.946 1.5722-4.68 0-7.213-2.4545-7.598-7.3629v-.1652c-1.102 1.9304-2.671 3.6673-4.708 5.2117-1.982 1.5439-4.459 2.3164-7.433 2.3164-2.588 0-5.148-.7725-7.681-2.3164-2.477-1.5993-3.716-4.3572-3.716-8.2729 0-4.5773 1.817-7.583 5.451-9.0171 3.634-1.489 7.57-2.2332 11.81-2.2332 1.046 0 2.12.0272 3.221.0826 1.021.0486 2.04.1312 3.056.2479v-2.0679c0-2.206-.386-4.1913-1.156-5.9565-.772-1.7646-2.698-2.6474-5.782-2.6474-1.156 0-2.257.0831-3.303.2484-.991.1658-1.955.4963-2.891.9927l-1.486 5.708-7.103-.7448zm20.152 19.689v-1.3237c-.937-.1103-1.9-.2207-2.891-.3311-1.015-.1115-2.035-.1667-3.056-.1652-2.202 0-4.184.386-5.946 1.1579-1.707.7719-2.56 2.3164-2.56 4.6328 0 3.3645 1.789 5.0464 5.368 5.0464 2.092 0 4.074-.7447 5.946-2.2337 1.872-1.5439 2.918-3.8054 3.139-6.7834zm75.691-15.6351h-3.717l-10.406 30.3603h-6.607l-10.24-24.487h-.413l-9.663 24.487h-6.277l-10.654-30.3603h-3.633v-6.7839h18.83v6.7839h-5.782l5.699 17.8689h.495l9.498-24.6528h5.451l10.654 24.4043h.495l4.46-17.6204h-5.534v-6.7839h17.344zm42.923 14.5598c0 5.3493-1.872 9.458-5.617 12.3262-3.688 2.8676-8.589 4.3017-14.7 4.3017-3.634 0-7.158-.4414-10.571-1.3237-3.359-.8824-6.029-2.1512-8.011-3.8054l1.486-12.3262 7.351.7448-.166 6.6176c1.817.9377 3.469 1.5444 4.956 1.82 1.541.2207 2.973.3311 4.294.3311 3.194 0 5.837-.4964 7.929-1.4896 2.147-1.0475 3.221-3.1155 3.221-6.2038 0-3.3645-1.211-5.5977-3.634-6.7007-2.423-1.1579-5.203-2.0408-8.342-2.6475-2.596-.5126-5.16-1.1755-7.68-1.9853-2.588-.8274-4.735-2.206-6.442-4.1364-1.707-1.9299-2.56-4.7709-2.56-8.5208 0-5.6254 1.899-9.6515 5.698-12.0782 3.854-2.48167 8.149-3.72222 12.884-3.72222 3.303 0 6.497.49633 9.58 1.48899 3.138.99263 5.589 2.28863 7.35 3.88803l.496 11.3334-7.35.6616-.744-6.9486c-1.541-.8828-3.083-1.4895-4.625-1.82-1.541-.3311-3.028-.4963-4.459-.4963-2.588 0-4.735.5235-6.442 1.5716s-2.56 2.73-2.56 5.0464c0 2.7018 1.046 4.5502 3.138 5.5423 2.147.9377 4.542 1.7097 7.185 2.3164 2.258.4963 4.818 1.1579 7.681 1.9858 2.863.8269 5.34 2.3159 7.433 4.467 2.147 2.0957 3.221 5.3492 3.221 9.7618zm35.253 4.8807c-1.046 7.8315-5.396 11.7472-13.049 11.7472-3.965 0-7.131-1.0481-9.498-3.1438-2.312-2.0957-3.469-5.0187-3.469-8.7687v-19.5237h-5.45v-6.5354h5.45v-11.4988h8.837v11.4988h13.792v6.5354h-13.792v18.1174c0 3.9157 1.707 5.8733 5.121 5.8733.936 0 1.982-.3311 3.138-.9927 1.156-.717 1.955-2.5093 2.395-5.3769zm5.755-23.4944c2.754-1.3237 5.203-2.2332 7.351-2.73 2.147-.4964 4.625-.7448 7.433-.7448 4.129 0 7.516 1.0481 10.158 3.1443 2.698 2.0957 4.047 5.2389 4.047 9.4303v16.711c0 2.206.909 3.309 2.726 3.309.495 0 1.128-.1103 1.899-.331l.083 4.8806c-1.817 1.0481-3.799 1.5722-5.947 1.5722-4.68 0-7.213-2.4545-7.598-7.3629v-.1652c-1.101 1.9304-2.67 3.6673-4.708 5.2117-1.982 1.5439-4.459 2.3164-7.433 2.3164-2.587 0-5.147-.7725-7.68-2.3164-2.478-1.5993-3.717-4.3572-3.717-8.2729 0-4.5773 1.817-7.583 5.451-9.0171 3.634-1.489 7.571-2.2332 11.811-2.2332 1.045 0 2.119.0272 3.221.0826 1.021.0486 2.04.1312 3.055.2479v-2.0679c0-2.206-.385-4.1913-1.156-5.9565-.771-1.7646-2.698-2.6474-5.781-2.6474-1.156 0-2.258.0831-3.304.2484-.991.1658-1.954.4963-2.891.9927l-1.486 5.708-7.103-.7448zm20.152 19.689v-1.3237c-.936-.1103-1.899-.2207-2.89-.3311-1.015-.1115-2.036-.1667-3.056-.1652-2.203 0-4.185.386-5.946 1.1579-1.707.7719-2.561 2.3164-2.561 4.6328 0 3.3645 1.79 5.0464 5.369 5.0464 2.092 0 4.074-.7447 5.946-2.2337 1.872-1.5439 2.918-3.8054 3.138-6.7834zm51.623 1.4064c-.385 3.309-1.844 6.5077-4.377 9.596-2.532 3.0335-6.607 4.5502-12.223 4.5502-5.285 0-9.607-1.5994-12.966-4.798-3.304-3.1987-4.955-7.8592-4.955-13.981 0-6.0114 1.707-10.8371 5.12-14.4767 3.469-3.6401 7.984-5.4602 13.545-5.4602 2.202 0 4.405.2757 6.607.8274 2.202.5513 4.377 1.4613 6.524 2.7296l1.486 10.4234-7.102.7448-1.239-6.1212c-2.004-.9854-4.209-1.4951-6.442-1.4895-6.166 0-9.249 4.1364-9.249 12.4087 0 8.0522 3.165 12.0783 9.497 12.0783 4.625 0 7.406-2.8127 8.341-8.4382zm45.409 13.3188h-18.502v-6.7834h4.294l-7.762-9.2655h-5.947v9.2655h4.13v6.7834h-18.5v-6.7834h5.534v-43.3486h-5.864v-6.7833h14.7v34.4962h6.36l6.524-7.8592h-4.873v-6.8659h18.088v6.8659h-4.624l-8.756 10.2582 11.231 13.2362h3.967z" fill="#ef5b3c"/><path d="m36.2243 72.5097c-1.9462-1.1258-3.8577-2.3164-5.8467-3.3601-2.7136-1.4233-2.8781-5.1509-.1856-6.6149 1.6325-.8872 2.8373-2.1995 3.3095-4.0652.6643-2.6208.0162-4.8915-2.0189-6.6425-1.9935-1.713-4.3342-2.1544-6.7916-1.1427-2.4802 1.0193-3.818 2.9589-4.0389 5.6482-.0239.2735-.0098.5502-.0174.8236-.0771 2.916-2.9611 4.5882-5.5021 3.1422-4.0823-2.324-8.13479-4.6953-12.19812-7.0519-.2162-.1244-.42202-.266-.61544-.4235-2.3478053-1.9408-2.964876-5.0361-1.453948-7.7021 2.278938-4.0263 4.589178-8.0347 6.930518-12.0249 1.56248-2.6611 4.94849-2.5942 6.49909.0848 2.4748 4.2783 8.2135 4.655 11.0551.6914 1.4958-2.0858 1.677-4.3772.552-6.6713-1.1251-2.2941-3.0458-3.4884-5.6041-3.6575-.6904-.0451-1.4258-.0446-2.0515-.2936-2.058-.8121-2.9144-3.1345-1.8094-5.1084 2.3429-4.1892 4.7162-8.36747 7.204-12.47074 1.6081-2.65343 4.8085-3.45854 7.6225-2.14569.3381.15874.6692.33814.9932.52569 3.7415 2.16145 7.5063 4.28593 11.2098 6.51314 1.1755.7073 2.3885.0343 2.3473-1.36992-.1118-3.84722 2.3353-7.24651 5.8798-8.444654 3.684-1.247074 7.6773-.032618 9.979 3.035054 2.3168 3.08507 2.4558 7.29542.1601 10.42402-.7604 1.0345-1.8171 1.9538-2.9291 2.6001-1.125.6524-1.1658 2.0343.0309 2.7008 3.862 2.1527 7.673 4.3979 11.4937 6.6213 2.553 1.4857 3.7616 3.8836 3.2205 6.5061-.162.7564-.4391 1.4834-.8217 2.1555-2.1931 3.8727-4.4736 7.6977-6.6407 11.5857-1.6145 2.8975-5.2991 2.767-6.7335.0179-1.2889-2.4746-3.9797-3.6879-6.6808-3.271-2.6078.4023-4.7749 2.4289-5.3637 5.0188-.5943 2.6105.4749 5.3307 2.7375 6.8866 1.0984.7556 2.3418 1.2014 3.6666 1.0998 3.2205-.2463 5.07 3.0915 3.3437 5.9314-2.2735 3.7391-4.3879 7.5716-6.5783 11.3607-1.9332 3.3449-5.3773 4.2723-8.7123 2.3528-1.8832-1.084-3.7632-2.1761-5.6437-3.2639z" fill="url(#a)"/></g></g></svg>