<svg fill="none" height="11" viewBox="0 0 72 11" width="72" xmlns="http://www.w3.org/2000/svg"><g fill="#000"><path d="m69.4197 9.99999v-6.54545h1.8154v6.54545z"/><path d="m70.3317 2.61079c-.2699 0-.5014-.08949-.6946-.26847-.1904-.18182-.2855-.39915-.2855-.65199 0-.25.0951-.46449.2855-.64346.1932-.181821.4247-.272731.6946-.272731s.5.09091.6903.272731c.1932.17897.2898.39346.2898.64346 0 .25284-.0966.47017-.2898.65199-.1903.17898-.4204.26847-.6903.26847z"/><path clip-rule="evenodd" d="m64.3253 10.1236c-.4176 0-.7898-.0725-1.1165-.21734-.3267-.14773-.5852-.36506-.7756-.65199-.1875-.28978-.2812-.65057-.2812-1.08239 0-.36364.0668-.66903.2003-.91619s.3153-.44603.5454-.59659c.2301-.15057.4915-.26421.7841-.34091.2955-.07671.6051-.13068.929-.16193.3807-.03978.6875-.07671.9205-.1108.2329-.03693.4019-.09091.5071-.16193.1051-.07102.1576-.17614.1576-.31534v-.02557c0-.26989-.0852-.47869-.2557-.62642-.1676-.14773-.4062-.22159-.7159-.22159-.3267 0-.5866.07244-.7798.21733-.1932.14204-.321.32102-.3835.53693l-1.679-.13636c.0852-.39773.2528-.74148.5028-1.03125.25-.29262.5725-.51705.9674-.6733.3977-.15909.8579-.23864 1.3807-.23864.3636 0 .7116.04262 1.044.12784.3352.08523.6321.21733.8906.39631.2614.17898.4673.40909.6179.69034.1506.27841.2259.61222.2259 1.00142v4.41477h-1.7216v-.90766h-.0512c-.1051.20454-.2457.38494-.4218.54119-.1762.15341-.3878.27415-.635.36221-.2471.08526-.5326.12786-.8565.12786zm.5199-1.25286c.267 0 .5028-.05255.7074-.15767.2045-.10795.365-.25284.4815-.43466.1165-.18181.1747-.38778.1747-.61789v-.69461c-.0568.03694-.1349.07103-.2344.10228-.0966.02841-.2059.0554-.3281.08096-.1221.02273-.2443.04404-.3665.06392-.1221.01705-.2329.03267-.3324.04688-.213.03125-.3991.08096-.5582.14915-.1591.06818-.2827.16051-.3707.27699-.0881.11363-.1321.25568-.1321.42613 0 .24716.0895.43608.2684.56676.1819.12784.412.19176.6904.19176z" fill-rule="evenodd"/><path d="m59.2212 9.81249c.2017.19891.4432.29831.7245.29831.1846 0 .3537-.0455.5071-.13638.1534-.09375.277-.21733.3707-.37074.0966-.15625.1449-.32812.1449-.51562 0-.27841-.1023-.51705-.3068-.71591-.2046-.19887-.4432-.2983-.7159-.2983-.2813 0-.5228.09943-.7245.2983-.1988.19886-.2983.4375-.2983.71591 0 .28125.0995.52272.2983.72443z"/><path d="m53.511 3.45456 1.2017 2.28835 1.2315-2.28835h1.8623l-1.8963 3.27273 1.9474 3.27271h-1.8537l-1.2912-2.26277-1.2699 2.26277h-1.875l1.9432-3.27271-1.875-3.27273z"/><path clip-rule="evenodd" d="m46.109 9.70597c.483.28125 1.0554.42183 1.7174.42183.6619 0 1.2329-.14058 1.713-.42183.483-.28409.8551-.67898 1.1165-1.18466.2614-.50852.392-1.09801.392-1.76846 0-.67614-.1306-1.26705-.392-1.77273-.2614-.50852-.6335-.90341-1.1165-1.18466-.4801-.28409-1.0511-.42614-1.713-.42614-.662 0-1.2344.14205-1.7174.42614-.4801.28125-.8508.67614-1.1122 1.18466-.2614.50568-.392 1.09659-.392 1.77273 0 .67045.1306 1.25994.392 1.76846.2614.50568.6321.90057 1.1122 1.18466zm2.4801-1.24006c-.2017.17046-.4531.25569-.7542.25569-.304 0-.5597-.08523-.7671-.25569-.2045-.17329-.3593-.40909-.4645-.70738-.1022-.2983-.1534-.63779-.1534-1.01847s.0512-.72017.1534-1.01846c.1052-.2983.26-.53409.4645-.70739.2074-.1733.4631-.25994.7671-.25994.3011 0 .5525.08664.7542.25994s.3537.40909.456.70739c.1051.29829.1577.63778.1577 1.01846s-.0526.72017-.1577 1.01847c-.1023.29829-.2543.53409-.456.70738z" fill-rule="evenodd"/><path d="m43.9943 3.45456v1.36363h-1.304v5.18181h-1.811v-5.18181h-.9248v-1.36363h.9248v-.47301c0-.47444.0923-.8679.2769-1.1804.1876-.3125.4432-.54688.7671-.70313.3239-.156248.6918-.234373 1.1037-.234373.2784 0 .5327.021307.7628.063921.2329.042614.4062.080962.5199.115062l-.3239 1.36363c-.071-.02273-.1591-.04403-.2642-.06392-.1023-.01989-.2074-.02983-.3154-.02983-.267 0-.4531.0625-.5582.1875-.1051.12216-.1577.29404-.1577.51563v.43892z"/><path d="m34.8249 10v-3.78409c.0029-.28125.0554-.5213.1577-.72017.1051-.2017.25-.35511.4347-.46022.1875-.10512.4034-.15767.6477-.15767.3636 0 .6491.11363.8565.34091.2074.22443.3097.53693.3068.9375v3.84374h1.8154v-4.16761c0-.50852-.0938-.94602-.2813-1.3125-.1875-.36932-.4503-.65341-.7883-.85227-.3381-.19886-.7344-.2983-1.1889-.2983-.4858 0-.8992.11222-1.2401.33665-.3409.22159-.5838.52273-.7287.90341h-.0767v-1.15483h-1.7301v6.54545z"/><path clip-rule="evenodd" d="m28.6076 10.1278c-.6619 0-1.2344-.14058-1.7173-.42183-.4801-.28409-.8509-.67898-1.1122-1.18466-.2614-.50852-.3921-1.09801-.3921-1.76846 0-.67614.1307-1.26705.3921-1.77273.2613-.50852.6321-.90341 1.1122-1.18466.4829-.28409 1.0554-.42614 1.7173-.42614s1.233.14205 1.7131.42614c.4829.28125.8551.67614 1.1164 1.18466.2614.50568.3921 1.09659.3921 1.77273 0 .67045-.1307 1.25994-.3921 1.76846-.2613.50568-.6335.90057-1.1164 1.18466-.4801.28125-1.0512.42183-1.7131.42183zm.0085-1.4062c.3012 0 .5526-.08523.7543-.25569.2017-.17329.3537-.40909.4559-.70738.1052-.2983.1577-.63779.1577-1.01847s-.0525-.72017-.1577-1.01846c-.1022-.2983-.2542-.53409-.4559-.70739s-.4531-.25994-.7543-.25994c-.304 0-.5596.08664-.767.25994-.2046.1733-.3594.40909-.4645.70739-.1023.29829-.1534.63778-.1534 1.01846s.0511.72017.1534 1.01847c.1051.29829.2599.53409.4645.70738.2074.17046.463.25569.767.25569z" fill-rule="evenodd"/><path d="m14.7049 3.45455v6.54545h1.8153v-3.92897c0-.24148.0469-.45171.1407-.63068.0937-.18182.2201-.32245.3792-.42188.162-.10227.3438-.15341.5455-.15341.2983 0 .5383.09517.7202.28551.1846.19034.2769.44603.2769.76705v4.08238h1.76v-3.99715c0-.34091.0923-.61506.277-.82245.1846-.21022.4417-.31534.7713-.31534.2898 0 .5312.09091.7244.27273s.2898.45455.2898.81818v4.04403h1.8111v-4.40198c0-.71023-.1918-1.25853-.5753-1.64489-.3807-.3892-.8764-.58381-1.4872-.58381-.4801 0-.8963.11364-1.2486.34091-.3494.22443-.5909.52415-.7244.89915h-.0682c-.1051-.38068-.3154-.68182-.6307-.90341-.3154-.22443-.6975-.33665-1.1463-.33665-.4432 0-.8239.1108-1.1421.33239-.3181.22159-.5454.52415-.6818.90767h-.0767v-1.15483z"/><path clip-rule="evenodd" d="m10.516 10.1278c-.67332 0-1.25286-.13632-1.73866-.40904-.48295-.27557-.85511-.66478-1.11647-1.16762-.26137-.50568-.39205-1.10369-.39205-1.79403 0-.6733.13068-1.26421.39205-1.77273.26136-.50852.62926-.90483 1.10369-1.18892.47727-.28409 1.03693-.42614 1.67894-.42614.4319 0 .8338.06961 1.206.20881.375.13636.7017.34233.9801.6179.2813.27557.5.62216.6563 1.03977.1562.41477.2343.90057.2343 1.45739v.49858h-4.45735v.00426c0 .32386.05966.60369.17898.83949.12216.23579.29404.41761.51563.54545s.48434.19176.78834.19176c.2017 0 .3864-.02841.554-.08522.1676-.05682.3111-.14205.4304-.25569.1193-.11363.2102-.25284.2727-.41761l1.679.1108c-.0852.4034-.26.75568-.5242 1.05681-.2613.2983-.5994.53125-1.0142.69887-.4119.16481-.8877.24711-1.4275.24711zm-1.45144-4.06103h2.74684c0-.26137-.0568-.4929-.1704-.69461-.1137-.2017-.2713-.35937-.473-.47301-.1989-.11647-.4304-.17471-.6946-.17471-.2756 0-.51992.06392-.73299.19176-.21023.125-.375.29403-.49432.5071-.11007.19394-.17058.40843-.18153.64347z" fill-rule="evenodd"/><path d="m.758522 1.27274v8.72726h5.586648v-1.5213h-3.74148v-7.20596z"/></g></svg>