<svg fill="none" height="494" viewBox="0 0 2979 494" width="2979" xmlns="http://www.w3.org/2000/svg" xmlns:xlink="http://www.w3.org/1999/xlink"><mask id="a" height="454" maskUnits="userSpaceOnUse" width="429" x="18" y="21"><path d="m72.788 24.6227c9.4 13.7 46.1 54.8 70.1 78.6003l14.4 14.3 12.3-3.1c42-10.6 84.3-10.6 126.4.1l11.9 2.9 5.6-4.9c6.1-5.3 32.3-31.7003 43.9-44.2003 8.3-8.9 29.1-34 34.7-41.7 2.1-2.9 4.2-5 4.6-4.5 2.7 3 12.2 35.9 14 48.3.6 4.1 1.3 8.6 1.6 10 .3 1.7-.3 1.1-2.1-2-3.7-6.3-7.5-10-10.2-10-5.4 0-18.8 16-24.7 29.4-5.6 12.5003-10.6 33.0003-10.6 43.1003 0 3.9.3 4.3 6.3 8.2 10.2 6.7 25.6 20.3 34.5 30.4 27.7 31.2 41.2 67.2 41.2 109.3 0 47.2-17.2 87.6-52.5 123.2-34.2 34.6-74.4 53.8-127.5 61-17.1 2.3-52.9 2.3-70 0-27.2-3.7-48.7-9.9-69.5-20-40.1-19.7-71-49.7-90-87.7-12.6-25-18.5-49.7-18.5-76.8.1-35.4 10-67.4 29.3-94.8 8.2-11.6 26.6-30 39.7-39.6 5.8-4.3 11.1-8.2 11.8-8.9 3.1-2.4-1.2-26.6-7.7-43.3-5.9-15.5003-17.7-31.4003-24.5-33.1003-3.5-.8-7.9 2.5-11.7 8.9-1.9 3.4-2.8 4.3-2.5 2.7.3-1.4.8-4.8 1.1-7.5 1.7-13.1 13.2-51.5 15.5-51.5.5 0 1.9 1.5 3.1 3.2z" fill="#ffc90d"/></mask><path d="m392.188 1.32275c-4.8 2.2-8.1 5.7-20.8 21.60005-5.2 6.6-10.3 12.9-11.4 14-1 1.1-4.7 5.4-8.3 9.5-10.1 11.7-16.3 18.2999-33 35.2999l-15.6 15.9001-6.2-1.7c-34-8.7-79.4-9.7-115.2-2.5-8 1.6-15.4 3.2-16.5 3.5-2.7.8-27.2-24-53.5-54-5.8-6.6-15.8-18.3001-22.2-26.1001-6.4-7.69996-12.8-14.49995-14.3-15.19995-3.6-1.6000019-11-1.500005-14.4.2-3.6 1.9-4.9 4-9.9 16.10005-16.7 41-26.1 101.5002-23.2 149.3002.5 8.7 1.2 16.5 1.5 17.3s-3.2 8.8-7.8 17.9c-19.69999 39-25.49999 75-18.59999 116 13.69999 81.7 79.39999 148.2 165.29999 167.5 45 10 91.5 9.5 134-1.5 12.4-3.2 31.8-9.5 35.6-11.5 1.4-.8 7.5-3.8 13.6-6.8 13.2-6.6 19.6-10.6 32.4-20.3 62.7-47.6 92.7-122.2 78-194.2-4.2-20.1-11.1-38.7-21.1-56l-4.9-8.4 1-6.7c4.7-33.4-.2-89.4002-11.5-131.1002-4.1-15.4-10.7-33.9-14.3-40.50005-4.3-7.9-11.7-10.9-18.7-7.6zm-319.4 23.30005c9.4 13.7 46.1 54.7999 70.1 78.6002l14.4 14.3 12.3-3.1c42-10.6 84.3-10.6 126.4.1l11.9 2.9 5.6-4.9c6.1-5.3 32.3-31.7003 43.9-44.2003 8.3-8.9 29.1-33.9999 34.7-41.6999 2.1-2.9 4.2-5 4.6-4.5 2.7 3 12.2 35.9 14 48.3.6 4.1 1.3 8.6 1.6 10 .3 1.7-.3 1.1-2.1-2-3.7-6.3-7.5-10-10.2-10-5.4 0-18.8 15.9999-24.7 29.3999-5.6 12.5003-10.6 33.0003-10.6 43.1003 0 3.9.3 4.3 6.3 8.2 10.2 6.7 25.6 20.3 34.5 30.4 27.7 31.2 41.2 67.2 41.2 109.3 0 47.2-17.2 87.6-52.5 123.2-34.2 34.6-74.4 53.8-127.5 61-17.1 2.3-52.9 2.3-70 0-27.2-3.7-48.7-9.9-69.5-20-40.1-19.7-71-49.7-90-87.7-12.6-25-18.5-49.7-18.5-76.8.1-35.4 10-67.4 29.3-94.8 8.2-11.6 26.6-30 39.7-39.6 5.8-4.3 11.1-8.2 11.8-8.9 3.1-2.4-1.2-26.6-7.7-43.3-5.9-15.5002-17.7-31.4003-24.5-33.1003-3.5-.8-7.9 2.5-11.7 8.9-1.9 3.4-2.8 4.3001-2.5 2.7001.3-1.4.8-4.8 1.1-7.5 1.7-13.1 13.2-51.5 15.5-51.5.5 0 1.9 1.5 3.1 3.2z" fill="#000"/><path d="m72.788 24.6227c9.4 13.7 46.1 54.8 70.1 78.6003l14.4 14.3 12.3-3.1c42-10.6 84.3-10.6 126.4.1l11.9 2.9 5.6-4.9c6.1-5.3 32.3-31.7003 43.9-44.2003 8.3-8.9 29.1-34 34.7-41.7 2.1-2.9 4.2-5 4.6-4.5 2.7 3 12.2 35.9 14 48.3.6 4.1 1.3 8.6 1.6 10 .3 1.7-.3 1.1-2.1-2-3.7-6.3-7.5-10-10.2-10-5.4 0-18.8 16-24.7 29.4-5.6 12.5003-10.6 33.0003-10.6 43.1003 0 3.9.3 4.3 6.3 8.2 10.2 6.7 25.6 20.3 34.5 30.4 27.7 31.2 41.2 67.2 41.2 109.3 0 47.2-17.2 87.6-52.5 123.2-34.2 34.6-74.4 53.8-127.5 61-17.1 2.3-52.9 2.3-70 0-27.2-3.7-48.7-9.9-69.5-20-40.1-19.7-71-49.7-90-87.7-12.6-25-18.5-49.7-18.5-76.8.1-35.4 10-67.4 29.3-94.8 8.2-11.6 26.6-30 39.7-39.6 5.8-4.3 11.1-8.2 11.8-8.9 3.1-2.4-1.2-26.6-7.7-43.3-5.9-15.5003-17.7-31.4003-24.5-33.1003-3.5-.8-7.9 2.5-11.7 8.9-1.9 3.4-2.8 4.3-2.5 2.7.3-1.4.8-4.8 1.1-7.5 1.7-13.1 13.2-51.5 15.5-51.5.5 0 1.9 1.5 3.1 3.2z" fill="#ffc90d"/><g mask="url(#a)"><path clip-rule="evenodd" d="m167.845 354.084c-6.011-36.529-43.413-64.661-88.657-64.661-49.4295 0-89.5 33.578-89.5 75 0 41.421 196.57 121.5 246 121.5 3.655 0 6.404-.438 8.359-1.266 60.895-8.252 230.64-81.193 230.64-120.234 0-41.422-40.071-75-89.5-75-43.866 0-80.362 26.445-88.021 61.349-11.734-26.889-35.976-45.349-63.978-45.349-29.137 0-54.204 19.988-65.343 48.661z" fill="#fbf8ec" fill-rule="evenodd"/></g><g fill="#000"><path d="m132.188 244.123c-6.5 2.4-13.5 7.3-17.3 12-3.1 4-7.6 12.2-7 12.9.2.2 3.3-.1 6.9-.7 22-3.7 43.7 8 59 31.6l4.3 6.8 1.5-3.4c1.9-4.6 2.6-19.2 1.1-26.2-2.5-12.4-11.9-25.6-22.1-31.2-7-3.8-18.7-4.5-26.4-1.8zm178.2.7c-15.6 6.5-25.5 21.8-26.5 41-.4 8.3 1.2 19.6 2.8 19.6.3 0 2.9-3.3 5.7-7.3 6.6-9.4 18.2-20.3 25.9-24.4 10.5-5.6 23.9-7.6 34.3-5.2 2.4.5 4.6.7 4.9.4 1.2-1.2-4.4-10.7-9.1-15.5-7.3-7.3-14-10.3-24.1-10.7-6.8-.3-9 0-13.9 2.1zm-90.4 95c-8.9 2.8-13.3 8.1-13.3 15.9 0 6 4 11.3 13.5 17.7l7.5 5.1v15.1l-5.7-.6c-8.2-1-15.8-3.3-21.7-6.6-3.9-2.2-5.5-2.6-6.8-1.9-2.8 1.6-2.1 4.2 2 8.1 16.3 15.7 58.4 15.7 74.5 0 4-3.9 4.7-6.6 2-8.1-1.3-.7-3.4-.1-8.3 2.4-7.4 3.7-11.9 5.1-20.2 6l-5.8.7v-14.9l5.3-3.4c7.8-5 14.4-12 15.6-16.6 2.2-8.3-3-15.8-13.1-18.8-6.2-1.8-19.7-1.9-25.5-.1z"/><path d="m644.693 392v-290.909h52.699v246.733h128.125v44.176zm320.881 4.261c-21.875 0-40.767-4.545-56.676-13.636-15.815-9.186-27.983-22.159-36.506-38.92-8.523-16.857-12.784-36.696-12.784-59.517 0-22.444 4.261-42.141 12.784-59.091 8.617-17.046 20.644-30.303 36.08-39.773 15.435-9.565 33.57-14.347 54.403-14.347 13.447 0 26.136 2.178 38.065 6.534 12.03 4.262 22.64 10.891 31.82 19.887 9.28 8.996 16.57 20.454 21.88 34.375 5.3 13.825 7.95 30.303 7.95 49.432v15.767h-178.834v-34.66h129.544c-.09-9.848-2.22-18.607-6.39-26.278-4.17-7.765-9.991-13.873-17.472-18.324-7.387-4.451-16.004-6.676-25.853-6.676-10.511 0-19.744 2.557-27.699 7.671-7.954 5.018-14.157 11.647-18.608 19.886-4.356 8.144-6.581 17.093-6.676 26.847v30.255c0 12.69 2.32 23.58 6.96 32.671 4.641 8.996 11.127 15.909 19.461 20.738 8.333 4.735 18.087 7.103 29.261 7.103 7.481 0 14.252-1.042 20.313-3.125 6.06-2.178 11.316-5.351 15.763-9.518 4.45-4.166 7.82-9.327 10.09-15.482l48.01 5.397c-3.03 12.69-8.81 23.769-17.33 33.239-8.43 9.375-19.22 16.667-32.39 21.875-13.159 5.114-28.215 7.67-45.166 7.67zm140.516-4.261v-218.182h49.15v37.074h2.56c4.54-12.5 12.07-22.254 22.58-29.261 10.51-7.103 23.06-10.654 37.64-10.654 14.78 0 27.23 3.599 37.36 10.796 10.23 7.102 17.43 16.808 21.59 29.119h2.28c4.83-12.121 12.97-21.78 24.43-28.977 11.55-7.292 25.23-10.938 41.05-10.938 20.07 0 36.46 6.345 49.15 19.034 12.69 12.69 19.03 31.203 19.03 55.54v146.449h-51.56v-138.494c0-13.542-3.6-23.438-10.8-29.688-7.19-6.345-16-9.517-26.42-9.517-12.4 0-22.11 3.883-29.12 11.648-6.91 7.67-10.37 17.661-10.37 29.971v136.08h-50.42v-140.625c0-11.269-3.41-20.265-10.23-26.989-6.72-6.723-15.53-10.085-26.42-10.085-7.39 0-14.11 1.894-20.17 5.682-6.06 3.693-10.89 8.949-14.49 15.767-3.6 6.723-5.4 14.583-5.4 23.58v132.67zm454.16 4.261c-21.31 0-39.78-4.687-55.4-14.062-15.63-9.375-27.75-22.491-36.36-39.347-8.53-16.856-12.79-36.553-12.79-59.091s4.26-42.282 12.79-59.233c8.61-16.95 20.73-30.113 36.36-39.488 15.62-9.375 34.09-14.063 55.4-14.063 21.3 0 39.77 4.688 55.39 14.063 15.63 9.375 27.7 22.538 36.23 39.488 8.61 16.951 12.92 36.695 12.92 59.233s-4.31 42.235-12.92 59.091c-8.53 16.856-20.6 29.972-36.23 39.347-15.62 9.375-34.09 14.062-55.39 14.062zm.28-41.193c11.55 0 21.21-3.172 28.98-9.517 7.76-6.439 13.54-15.057 17.33-25.852 3.88-10.796 5.82-22.822 5.82-36.08 0-13.352-1.94-25.426-5.82-36.221-3.79-10.89-9.57-19.555-17.33-25.995-7.77-6.439-17.43-9.659-28.98-9.659-11.84 0-21.68 3.22-29.54 9.659-7.77 6.44-13.59 15.105-17.48 25.995-3.78 10.795-5.68 22.869-5.68 36.221 0 13.258 1.9 25.284 5.68 36.08 3.89 10.795 9.71 19.413 17.48 25.852 7.86 6.345 17.7 9.517 29.54 9.517zm199.33-90.909v127.841h-51.42v-218.182h49.14v37.074h2.56c5.02-12.216 13.02-21.922 24.01-29.119 11.08-7.197 24.76-10.796 41.05-10.796 15.05 0 28.17 3.22 39.34 9.659 11.27 6.44 19.99 15.767 26.14 27.983 6.25 12.216 9.33 27.036 9.23 44.461v138.92h-51.42v-130.966c0-14.583-3.78-25.994-11.36-34.233-7.48-8.239-17.85-12.358-31.11-12.358-8.99 0-17 1.989-24 5.966-6.92 3.883-12.36 9.517-16.34 16.903-3.88 7.387-5.82 16.336-5.82 26.847zm302.84-90.341v39.773h-128.98v-39.773zm-96.74 218.182v-238.778c0-14.678 3.03-26.894 9.1-36.648 6.15-9.754 14.39-17.0456 24.71-21.8751 10.32-4.8296 21.78-7.2444 34.38-7.2444 8.9 0 16.81.7103 23.72 2.1307 6.91 1.4205 12.02 2.6989 15.34 3.8353l-10.23 39.7725c-2.18-.663-4.92-1.326-8.24-1.988-3.31-.758-7-1.137-11.08-1.137-9.56 0-16.33 2.32-20.31 6.96-3.88 4.546-5.82 11.08-5.82 19.603v235.369zm223.97 4.261c-21.3 0-39.77-4.687-55.39-14.062-15.63-9.375-27.75-22.491-36.37-39.347-8.52-16.856-12.78-36.553-12.78-59.091s4.26-42.282 12.78-59.233c8.62-16.95 20.74-30.113 36.37-39.488 15.62-9.375 34.09-14.063 55.39-14.063 21.31 0 39.78 4.688 55.4 14.063 15.63 9.375 27.7 22.538 36.22 39.488 8.62 16.951 12.93 36.695 12.93 59.233s-4.31 42.235-12.93 59.091c-8.52 16.856-20.59 29.972-36.22 39.347-15.62 9.375-34.09 14.062-55.4 14.062zm.29-41.193c11.55 0 21.21-3.172 28.98-9.517 7.76-6.439 13.54-15.057 17.33-25.852 3.88-10.796 5.82-22.822 5.82-36.08 0-13.352-1.94-25.426-5.82-36.221-3.79-10.89-9.57-19.555-17.33-25.995-7.77-6.439-17.43-9.659-28.98-9.659-11.84 0-21.69 3.22-29.55 9.659-7.76 6.44-13.59 15.105-17.47 25.995-3.79 10.795-5.68 22.869-5.68 36.221 0 13.258 1.89 25.284 5.68 36.08 3.88 10.795 9.71 19.413 17.47 25.852 7.86 6.345 17.71 9.517 29.55 9.517zm181.75-181.25 44.03 80.54 44.74-80.54h54.41l-65.77 109.091 66.9 109.091h-54.12l-46.16-78.551-45.74 78.551h-54.54l66.47-109.091-64.77-109.091zm214.63 221.307c-8.62 0-16.01-3.03-22.16-9.091-6.16-6.061-9.19-13.447-9.09-22.159-.1-8.523 2.93-15.814 9.09-21.875 6.15-6.061 13.54-9.091 22.16-9.091 8.33 0 15.57 3.03 21.73 9.091 6.25 6.061 9.42 13.352 9.52 21.875-.1 5.777-1.61 11.032-4.55 15.767-2.84 4.735-6.63 8.523-11.36 11.364-4.64 2.746-9.76 4.119-15.34 4.119zm147.12 1.278c-13.83 0-26.28-2.462-37.36-7.386-10.98-5.019-19.69-12.405-26.13-22.159-6.35-9.754-9.52-21.78-9.52-36.08 0-12.31 2.27-22.49 6.82-30.539 4.54-8.05 10.75-14.489 18.6-19.319 7.86-4.829 16.72-8.475 26.57-10.937 9.94-2.557 20.22-4.403 30.82-5.54 12.79-1.326 23.15-2.509 31.11-3.551 7.95-1.136 13.73-2.841 17.33-5.114 3.69-2.367 5.54-6.013 5.54-10.937v-.852c0-10.701-3.17-18.987-9.52-24.858-6.34-5.872-15.48-8.807-27.41-8.807-12.6 0-22.59 2.746-29.97 8.238-7.3 5.493-12.22 11.98-14.78 19.461l-48.01-6.818c3.79-13.258 10.04-24.338 18.75-33.239 8.71-8.996 19.37-15.72 31.96-20.171 12.6-4.545 26.52-6.818 41.76-6.818 10.51 0 20.98 1.231 31.39 3.693 10.42 2.463 19.94 6.535 28.56 12.216 8.61 5.587 15.53 13.211 20.73 22.87 5.31 9.659 7.96 21.733 7.96 36.221v146.023h-49.43v-29.972h-1.71c-3.12 6.061-7.53 11.743-13.21 17.046-5.58 5.208-12.64 9.422-21.16 12.642-8.43 3.125-18.33 4.687-29.69 4.687zm13.35-37.784c10.32 0 19.27-2.036 26.85-6.108 7.57-4.166 13.4-9.659 17.47-16.477 4.17-6.818 6.25-14.252 6.25-22.301v-25.71c-1.61 1.325-4.36 2.557-8.24 3.693-3.79 1.136-8.05 2.131-12.78 2.983-4.74.852-9.42 1.61-14.06 2.273-4.64.662-8.67 1.231-12.08 1.704-7.67 1.042-14.53 2.746-20.6 5.114-6.06 2.367-10.84 5.682-14.34 9.943-3.51 4.167-5.26 9.564-5.26 16.193 0 9.47 3.46 16.619 10.37 21.449s15.72 7.244 26.42 7.244zm153.55 33.381v-218.182h51.42v218.182zm25.86-249.148c-8.15 0-15.16-2.699-21.03-8.096-5.87-5.493-8.8-12.074-8.8-19.745 0-7.765 2.93-14.346 8.8-19.744 5.87-5.4924 12.88-8.2386 21.03-8.2386 8.23 0 15.24 2.7462 21.02 8.2386 5.87 5.398 8.81 11.979 8.81 19.744 0 7.671-2.94 14.252-8.81 19.745-5.78 5.397-12.79 8.096-21.02 8.096z"/></g></svg>