<svg fill="none" height="314" viewBox="0 0 861 314" width="861" xmlns="http://www.w3.org/2000/svg"><path d="m426.11 227.38h-48.85c-2.02 0-3.72-.69-5.08-2.05-1.37-1.37-2.05-3.06-2.05-5.08v-19.79c-.12-13.31-.18-27.87-.18-43.68v-63.6397c0-2.02.68-3.71 2.05-5.08s3.06-2.05 5.08-2.05c1.9 0 3.57.69 4.99 2.05 1.43 1.37 2.14 3.06 2.14 5.08v63.4697c0 15.93.06 30.55.18 43.86v12.66h41.72c2.02 0 3.71.71 5.08 2.14 1.36 1.43 2.05 3.09 2.05 4.99s-.69 3.57-2.05 4.99c-1.37 1.43-3.06 2.14-5.08 2.14z" fill="#1689d6"/><path d="m781.05 86.1803h3.21c2.26 0 4.93-.06 8.02-.18h57.58c.47 0 .92-.03 1.34-.09s.74-.09.98-.09h.89c1.9 0 3.57.71 4.99 2.14 1.43 1.43 2.14 3.09 2.14 4.99s-.71 3.57-2.14 4.99c-1.43 1.43-3.09 2.1397-4.99 2.1397h-.89c-.24 0-.57.03-.98.09-.42.06-.86.09-1.34.09h-26.38v13.91c.12 13.43.18 28.17.18 44.21v64.18c0 2.02-.69 3.71-2.05 5.08-1.37 1.36-3.06 2.05-5.08 2.05s-3.72-.69-5.08-2.05c-1.37-1.37-2.05-3.06-2.05-5.08v-64.18c0-16.04-.06-30.78-.18-44.21v-13.91h-16.76c-3.21.12-5.94.18-8.2.18h-3.03c-2.02 0-3.72-.7097-5.08-2.1397-1.37-1.43-2.05-3.09-2.05-4.99 0-2.02.68-3.71 2.05-5.08 1.36-1.36 3-2.05 4.9-2.05z" fill="#1689d6"/><g fill="#1267ad"><path d="m311.12 167.3c.735 0 1.33-.595 1.33-1.33 0-.734-.595-1.33-1.33-1.33s-1.33.596-1.33 1.33c0 .735.595 1.33 1.33 1.33z"/><path d="m309.69 180.75c1.795 0 3.25-1.455 3.25-3.25s-1.455-3.25-3.25-3.25-3.25 1.455-3.25 3.25 1.455 3.25 3.25 3.25z"/><path d="m308.41 191.81c1.762 0 3.19-1.428 3.19-3.19s-1.428-3.19-3.19-3.19-3.19 1.428-3.19 3.19 1.428 3.19 3.19 3.19z"/><path d="m301.11 214.79c1.464 0 2.65-1.186 2.65-2.65 0-1.463-1.186-2.65-2.65-2.65s-2.65 1.187-2.65 2.65c0 1.464 1.186 2.65 2.65 2.65z"/><path d="m305.25 204.53c1.204 0 2.18-.976 2.18-2.18s-.976-2.18-2.18-2.18-2.18.976-2.18 2.18.976 2.18 2.18 2.18z"/><path d="m302.97 208.75c.845 0 1.53-.685 1.53-1.53s-.685-1.53-1.53-1.53-1.53.685-1.53 1.53.685 1.53 1.53 1.53z"/><path d="m297.63 224.02c1.176 0 2.13-.953 2.13-2.13 0-1.176-.954-2.13-2.13-2.13s-2.13.954-2.13 2.13c0 1.177.954 2.13 2.13 2.13z"/><path d="m295.47 229.5c1.419 0 2.57-1.15 2.57-2.57 0-1.419-1.151-2.57-2.57-2.57s-2.57 1.151-2.57 2.57c0 1.42 1.151 2.57 2.57 2.57z"/><path d="m279.6 255.47c1.972 0 3.57-1.598 3.57-3.57s-1.598-3.57-3.57-3.57-3.57 1.598-3.57 3.57 1.598 3.57 3.57 3.57z"/><path d="m271.05 263.69c1.303 0 2.36-1.056 2.36-2.36 0-1.303-1.057-2.36-2.36-2.36s-2.36 1.057-2.36 2.36c0 1.304 1.057 2.36 2.36 2.36z"/><path d="m264.82 270.27c1.497 0 2.71-1.213 2.71-2.71s-1.213-2.71-2.71-2.71-2.71 1.213-2.71 2.71 1.213 2.71 2.71 2.71z"/><path d="m248.86 283.33c.961 0 1.74-.779 1.74-1.74s-.779-1.74-1.74-1.74-1.74.779-1.74 1.74.779 1.74 1.74 1.74z"/><path d="m233.97 294.57c1.939 0 3.51-1.571 3.51-3.51 0-1.938-1.571-3.51-3.51-3.51s-3.51 1.572-3.51 3.51c0 1.939 1.571 3.51 3.51 3.51z"/><path d="m220.28 300.23c1.066 0 1.93-.864 1.93-1.93s-.864-1.93-1.93-1.93-1.93.864-1.93 1.93.864 1.93 1.93 1.93z"/><path d="m200.81 307.34c1.149 0 2.08-.931 2.08-2.08s-.931-2.08-2.08-2.08-2.08.931-2.08 2.08.931 2.08 2.08 2.08z"/><path d="m171.89 312.5c1.121 0 2.03-.908 2.03-2.03 0-1.121-.909-2.03-2.03-2.03s-2.03.909-2.03 2.03c0 1.122.909 2.03 2.03 2.03z"/><path d="m156.35 313.7c.961 0 1.74-.779 1.74-1.74s-.779-1.74-1.74-1.74-1.74.779-1.74 1.74.779 1.74 1.74 1.74z"/><path d="m130.71 311c1.105 0 2-.895 2-2s-.895-2-2-2-2 .895-2 2 .895 2 2 2z"/><path d="m117.68 309.52c1.729 0 3.13-1.401 3.13-3.13 0-1.728-1.401-3.13-3.13-3.13s-3.13 1.402-3.13 3.13c0 1.729 1.401 3.13 3.13 3.13z"/><path d="m106.19 305.36c1.701 0 3.08-1.379 3.08-3.08s-1.379-3.08-3.08-3.08-3.08 1.379-3.08 3.08 1.379 3.08 3.08 3.08z"/><path d="m97.66 302.11c1.5906 0 2.88-1.289 2.88-2.88 0-1.59-1.2894-2.88-2.88-2.88s-2.88 1.29-2.88 2.88c0 1.591 1.2894 2.88 2.88 2.88z"/><path d="m72.38 288.2c1.574 0 2.85-1.276 2.85-2.85s-1.276-2.85-2.85-2.85-2.85 1.276-2.85 2.85 1.276 2.85 2.85 2.85z"/><path d="m62.88 281.46c1.1929 0 2.16-.967 2.16-2.16s-.9671-2.16-2.16-2.16-2.16.967-2.16 2.16.9671 2.16 2.16 2.16z"/><path d="m56.14 276.37c1.7563 0 3.18-1.423 3.18-3.18 0-1.756-1.4237-3.18-3.18-3.18s-3.18 1.424-3.18 3.18c0 1.757 1.4237 3.18 3.18 3.18z"/><path d="m42.23 261.86c1.4249 0 2.58-1.155 2.58-2.58s-1.1551-2.58-2.58-2.58-2.58 1.155-2.58 2.58 1.1551 2.58 2.58 2.58z"/><path d="m28.96 244.99c2.0655 0 3.74-1.674 3.74-3.74 0-2.065-1.6745-3.74-3.74-3.74s-3.74 1.675-3.74 3.74c0 2.066 1.6745 3.74 3.74 3.74z"/><path d="m16.06 220.75c1.9109 0 3.46-1.549 3.46-3.46s-1.5491-3.46-3.46-3.46-3.46 1.549-3.46 3.46 1.5491 3.46 3.46 3.46z"/><path d="m6.91 192.18c2.0048 0 3.63-1.625 3.63-3.63s-1.6252-3.63-3.63-3.63c-2.00479 0-3.63 1.625-3.63 3.63s1.62521 3.63 3.63 3.63z"/><path d="m3.58001 163.17c1.97166 0 3.57-1.598 3.57-3.57 0-1.971-1.59834-3.57-3.57-3.57s-3.5700002 1.599-3.5700002 3.57c0 1.972 1.5983402 3.57 3.5700002 3.57z"/><path d="m5.74001 140.7c1.87224 0 3.38999-1.518 3.38999-3.39s-1.51775-3.39-3.38999-3.39c-1.87225 0-3.39 1.518-3.39 3.39s1.51775 3.39 3.39 3.39z"/><path d="m12.51 109.8c.8395 0 1.52-.68 1.52-1.52 0-.839-.6805-1.52-1.52-1.52s-1.52.681-1.52 1.52c0 .84.6805 1.52 1.52 1.52z"/><path d="m24.5 82.7503c.7456 0 1.35-.6044 1.35-1.35s-.6044-1.35-1.35-1.35-1.35.6044-1.35 1.35.6044 1.35 1.35 1.35z"/><path d="m35.9 64.96c.8284 0 1.5-.6716 1.5-1.5 0-.8285-.6716-1.5-1.5-1.5s-1.5.6715-1.5 1.5c0 .8284.6716 1.5 1.5 1.5z"/><path d="m44.87 55.3601c.9113 0 1.65-.7388 1.65-1.65 0-.9113-.7387-1.65-1.65-1.65s-1.65.7387-1.65 1.65c0 .9112.7387 1.65 1.65 1.65z"/><path d="m60.33 41.8904c2.0048 0 3.63-1.6252 3.63-3.63s-1.6252-3.63-3.63-3.63-3.63 1.6252-3.63 3.63 1.6252 3.63 3.63 3.63z"/><path d="m73.24 31.73c1.0991 0 1.99-.891 1.99-1.99s-.8909-1.99-1.99-1.99c-1.099 0-1.99.891-1.99 1.99s.891 1.99 1.99 1.99z"/><path d="m99.92 19.3803c2.093 0 3.79-1.6969 3.79-3.79 0-2.0932-1.697-3.79-3.79-3.79-2.0932 0-3.79 1.6968-3.79 3.79 0 2.0931 1.6968 3.79 3.79 3.79z"/><path d="m126.32 9.94033c1.546 0 2.8-1.2536 2.8-2.8s-1.254-2.8-2.8-2.8-2.8 1.2536-2.8 2.8 1.254 2.8 2.8 2.8z"/><path d="m154.06 6.95017c1.662 0 3.01-1.34762 3.01-3.01 0-1.66237-1.348-3.009994-3.01-3.009994s-3.01 1.347624-3.01 3.009994c0 1.66238 1.348 3.01 3.01 3.01z"/><path d="m173.08 8.01033c1.497 0 2.71-1.2133 2.71-2.71 0-1.49669-1.213-2.71-2.71-2.71s-2.71 1.21331-2.71 2.71c0 1.4967 1.213 2.71 2.71 2.71z"/><path d="m192.83 9.85006c1.254 0 2.27-1.01631 2.27-2.27 0-1.25368-1.016-2.27-2.27-2.27s-2.27 1.01632-2.27 2.27c0 1.25369 1.016 2.27 2.27 2.27z"/><path d="m200.78 12.2599c1.607 0 2.91-1.3028 2.91-2.90996 0-1.60715-1.303-2.91-2.91-2.91s-2.91 1.30285-2.91 2.91c0 1.60716 1.303 2.90996 2.91 2.90996z"/><path d="m222.56 19.9301c.983 0 1.78-.7969 1.78-1.78s-.797-1.78-1.78-1.78-1.78.7969-1.78 1.78.797 1.78 1.78 1.78z"/><path d="m239.36 31.7403c2.06 0 3.73-1.67 3.73-3.73s-1.67-3.73-3.73-3.73-3.73 1.67-3.73 3.73 1.67 3.73 3.73 3.73z"/><path d="m260.61 47.3301c1.916 0 3.47-1.5535 3.47-3.47 0-1.9164-1.554-3.47-3.47-3.47s-3.47 1.5536-3.47 3.47c0 1.9165 1.554 3.47 3.47 3.47z"/><path d="m267.81 53.0303c1.524 0 2.76-1.2357 2.76-2.7601 0-1.5243-1.236-2.7599-2.76-2.7599s-2.76 1.2356-2.76 2.7599c0 1.5244 1.236 2.7601 2.76 2.7601z"/><path d="m281.33 70.3201c2.137 0 3.87-1.7327 3.87-3.87 0-2.1374-1.733-3.87-3.87-3.87s-3.87 1.7326-3.87 3.87c0 2.1373 1.733 3.87 3.87 3.87z"/><path d="m286.76 75.4803c1.165 0 2.11-.9447 2.11-2.11 0-1.1654-.945-2.11-2.11-2.11s-2.11.9446-2.11 2.11c0 1.1653.945 2.11 2.11 2.11z"/><path d="m292.03 85.83c1.397 0 2.53-1.1327 2.53-2.53s-1.133-2.53-2.53-2.53-2.53 1.1327-2.53 2.53 1.133 2.53 2.53 2.53z"/><path d="m295.99 93.2603c2.06 0 3.73-1.67 3.73-3.73s-1.67-3.73-3.73-3.73-3.73 1.67-3.73 3.73 1.67 3.73 3.73 3.73z"/><path d="m300.8 105.22c1.436 0 2.6-1.164 2.6-2.6s-1.164-2.6-2.6-2.6-2.6 1.164-2.6 2.6 1.164 2.6 2.6 2.6z"/><path d="m308.76 133.26c1.784 0 3.23-1.446 3.23-3.23s-1.446-3.23-3.23-3.23-3.23 1.446-3.23 3.23 1.446 3.23 3.23 3.23z"/><path d="m311.96 162.05c1.789 0 3.24-1.45 3.24-3.24 0-1.789-1.451-3.24-3.24-3.24s-3.24 1.451-3.24 3.24c0 1.79 1.451 3.24 3.24 3.24z"/></g><path d="m300.27 161.64c1.32 0 2.39-1.07 2.39-2.39s-1.07-2.39-2.39-2.39-2.39 1.07-2.39 2.39 1.07 2.39 2.39 2.39z" fill="#1689d6"/><path d="m297.83 186.26c1.132 0 2.05-.918 2.05-2.05s-.918-2.05-2.05-2.05-2.05.918-2.05 2.05.918 2.05 2.05 2.05z" fill="#1689d6"/><path d="m296.13 194.42c1.8 0 3.26-1.46 3.26-3.26 0-1.801-1.46-3.26-3.26-3.26s-3.26 1.459-3.26 3.26c0 1.8 1.46 3.26 3.26 3.26z" fill="#1689d6"/><path d="m293.77 201.03c1.535 0 2.78-1.244 2.78-2.78 0-1.535-1.245-2.78-2.78-2.78s-2.78 1.245-2.78 2.78c0 1.536 1.245 2.78 2.78 2.78z" fill="#1689d6"/><path d="m287.98 216.89c1.607 0 2.91-1.303 2.91-2.91s-1.303-2.91-2.91-2.91-2.91 1.303-2.91 2.91 1.303 2.91 2.91 2.91z" fill="#1689d6"/><path d="m281.91 228.51c1.325 0 2.4-1.075 2.4-2.4 0-1.326-1.075-2.4-2.4-2.4s-2.4 1.074-2.4 2.4c0 1.325 1.075 2.4 2.4 2.4z" fill="#1689d6"/><path d="m277.39 236.59c1.994 0 3.61-1.616 3.61-3.61s-1.616-3.61-3.61-3.61-3.61 1.616-3.61 3.61 1.616 3.61 3.61 3.61z" fill="#1689d6"/><path d="m258.25 258.91c1.16 0 2.1-.94 2.1-2.1s-.94-2.1-2.1-2.1-2.1.94-2.1 2.1.94 2.1 2.1 2.1z" fill="#1689d6"/><path d="m253.1 264.34c1.314 0 2.38-1.065 2.38-2.38 0-1.314-1.066-2.38-2.38-2.38s-2.38 1.066-2.38 2.38c0 1.315 1.066 2.38 2.38 2.38z" fill="#1689d6"/><path d="m249.08 268.11c1.132 0 2.05-.918 2.05-2.05s-.918-2.05-2.05-2.05-2.05.918-2.05 2.05.918 2.05 2.05 2.05z" fill="#1689d6"/><path d="m243.48 273.29c1.662 0 3.01-1.348 3.01-3.01s-1.348-3.01-3.01-3.01-3.01 1.348-3.01 3.01 1.348 3.01 3.01 3.01z" fill="#1689d6"/><path d="m221.85 285.9c1.033 0 1.87-.837 1.87-1.87s-.837-1.87-1.87-1.87-1.87.837-1.87 1.87.837 1.87 1.87 1.87z" fill="#1689d6"/><path d="m202.51 293.36c1.132 0 2.05-.918 2.05-2.05s-.918-2.05-2.05-2.05-2.05.918-2.05 2.05.918 2.05 2.05 2.05z" fill="#1689d6"/><path d="m173.58 298.95c.762 0 1.38-.618 1.38-1.38s-.618-1.38-1.38-1.38-1.38.618-1.38 1.38.618 1.38 1.38 1.38z" fill="#1689d6"/><path d="m151.67 302.33c1.999 0 3.62-1.621 3.62-3.62s-1.621-3.62-3.62-3.62-3.62 1.621-3.62 3.62 1.621 3.62 3.62 3.62z" fill="#1689d6"/><path d="m130.73 298.32c1.116 0 2.02-.904 2.02-2.02 0-1.115-.904-2.02-2.02-2.02s-2.02.905-2.02 2.02c0 1.116.904 2.02 2.02 2.02z" fill="#1689d6"/><path d="m106.14 291.46c.922 0 1.67-.748 1.67-1.67s-.748-1.67-1.67-1.67-1.67.748-1.67 1.67.748 1.67 1.67 1.67z" fill="#1689d6"/><path d="m99.73 290.28c2.016 0 3.65-1.634 3.65-3.65s-1.634-3.65-3.65-3.65c-2.0158 0-3.65 1.634-3.65 3.65s1.6342 3.65 3.65 3.65z" fill="#1689d6"/><path d="m84.73 280.77c1.2703 0 2.3-1.03 2.3-2.3s-1.0297-2.3-2.3-2.3c-1.2702 0-2.3 1.03-2.3 2.3s1.0298 2.3 2.3 2.3z" fill="#1689d6"/><path d="m68.79 271.5c1.7452 0 3.16-1.415 3.16-3.16s-1.4148-3.16-3.16-3.16-3.16 1.415-3.16 3.16 1.4148 3.16 3.16 3.16z" fill="#1689d6"/><path d="m58.96 262.43c2.0656 0 3.74-1.674 3.74-3.74 0-2.065-1.6744-3.74-3.74-3.74-2.0655 0-3.74 1.675-3.74 3.74 0 2.066 1.6745 3.74 3.74 3.74z" fill="#1689d6"/><path d="m40.32 240.32c1.9882 0 3.6-1.612 3.6-3.6s-1.6118-3.6-3.6-3.6-3.6 1.612-3.6 3.6 1.6118 3.6 3.6 3.6z" fill="#1689d6"/><path d="m32.55 227.8c1.8226 0 3.3-1.477 3.3-3.3 0-1.822-1.4774-3.3-3.3-3.3-1.8225 0-3.3 1.478-3.3 3.3 0 1.823 1.4775 3.3 3.3 3.3z" fill="#1689d6"/><path d="m28.05 219.64c.9665 0 1.75-.783 1.75-1.75 0-.966-.7835-1.75-1.75-1.75s-1.75.784-1.75 1.75c0 .967.7835 1.75 1.75 1.75z" fill="#1689d6"/><path d="m21.87 202.18c1.9551 0 3.54-1.585 3.54-3.54s-1.5849-3.54-3.54-3.54-3.54 1.585-3.54 3.54 1.5849 3.54 3.54 3.54z" fill="#1689d6"/><path d="m16.51 173.66c.9831 0 1.78-.797 1.78-1.78s-.7969-1.78-1.78-1.78-1.78.797-1.78 1.78.7969 1.78 1.78 1.78z" fill="#1689d6"/><path d="m15.66 151.18c1.4967 0 2.71-1.213 2.71-2.71 0-1.496-1.2133-2.71-2.71-2.71s-2.71 1.214-2.71 2.71c0 1.497 1.2133 2.71 2.71 2.71z" fill="#1689d6"/><path d="m17.87 130.82c.8837 0 1.6-.716 1.6-1.6s-.7163-1.6-1.6-1.6c-.8836 0-1.6.716-1.6 1.6s.7164 1.6 1.6 1.6z" fill="#1689d6"/><path d="m24.11 110.87c1.563 0 2.83-1.267 2.83-2.83s-1.267-2.83-2.83-2.83-2.83 1.267-2.83 2.83 1.267 2.83 2.83 2.83z" fill="#1689d6"/><path d="m35.87 85.5302c1.2758 0 2.31-1.0343 2.31-2.31 0-1.2758-1.0342-2.31-2.31-2.31s-2.31 1.0342-2.31 2.31c0 1.2757 1.0342 2.31 2.31 2.31z" fill="#1689d6"/><path d="m52.65 62.18c.8892 0 1.61-.7209 1.61-1.61 0-.8892-.7208-1.61-1.61-1.61s-1.61.7208-1.61 1.61c0 .8891.7208 1.61 1.61 1.61z" fill="#1689d6"/><path d="m65.46 49.8801c1.1709 0 2.12-.9491 2.12-2.12 0-1.1708-.9491-2.12-2.12-2.12-1.1708 0-2.12.9492-2.12 2.12 0 1.1709.9492 2.12 2.12 2.12z" fill="#1689d6"/><path d="m76.75 42.06c1.3863 0 2.51-1.1237 2.51-2.51 0-1.3862-1.1237-2.51-2.51-2.51-1.3862 0-2.51 1.1238-2.51 2.51 0 1.3863 1.1238 2.51 2.51 2.51z" fill="#1689d6"/><path d="m86.75 34.92c.9555 0 1.73-.7746 1.73-1.73 0-.9555-.7745-1.73-1.73-1.73-.9554 0-1.73.7745-1.73 1.73 0 .9554.7746 1.73 1.73 1.73z" fill="#1689d6"/><path d="m96.97 29.9801c1.4801 0 2.68-1.1999 2.68-2.68s-1.1999-2.68-2.68-2.68-2.68 1.1999-2.68 2.68 1.1999 2.68 2.68 2.68z" fill="#1689d6"/><path d="m117.95 21.4699c.922 0 1.67-.7477 1.67-1.67s-.748-1.67-1.67-1.67-1.67.7477-1.67 1.67.748 1.67 1.67 1.67z" fill="#1689d6"/><path d="m126.55 20.8799c2.071 0 3.75-1.6789 3.75-3.75s-1.679-3.75-3.75-3.75-3.75 1.6789-3.75 3.75 1.679 3.75 3.75 3.75z" fill="#1689d6"/><path d="m135.11 19.2303c1.707 0 3.09-1.3835 3.09-3.09 0-1.7066-1.383-3.09-3.09-3.09s-3.09 1.3834-3.09 3.09c0 1.7065 1.383 3.09 3.09 3.09z" fill="#1689d6"/><path d="m147.24 17.1901c1.348 0 2.44-1.0925 2.44-2.44 0-1.3476-1.092-2.44-2.44-2.44s-2.44 1.0924-2.44 2.44c0 1.3475 1.092 2.44 2.44 2.44z" fill="#1689d6"/><path d="m167.93 16.48c.966 0 1.75-.7835 1.75-1.75s-.784-1.75-1.75-1.75c-.967 0-1.75.7835-1.75 1.75s.783 1.75 1.75 1.75z" fill="#1689d6"/><path d="m196.8 23.3501c2.077 0 3.76-1.6834 3.76-3.76s-1.683-3.76-3.76-3.76-3.76 1.6834-3.76 3.76 1.683 3.76 3.76 3.76z" fill="#1689d6"/><path d="m198.4 21.6002c.795 0 1.44-.6447 1.44-1.44s-.645-1.44-1.44-1.44-1.44.6447-1.44 1.44.645 1.44 1.44 1.44z" fill="#1689d6"/><path d="m208.85 26.7201c1.557 0 2.82-1.2626 2.82-2.82 0-1.5575-1.263-2.82-2.82-2.82s-2.82 1.2625-2.82 2.82c0 1.5574 1.263 2.82 2.82 2.82z" fill="#1689d6"/><path d="m236.02 39.6499c.955 0 1.73-.7745 1.73-1.73 0-.9554-.775-1.73-1.73-1.73s-1.73.7746-1.73 1.73c0 .9555.775 1.73 1.73 1.73z" fill="#1689d6"/><path d="m251.92 53.1799c1.861 0 3.37-1.5088 3.37-3.37s-1.509-3.37-3.37-3.37-3.37 1.5088-3.37 3.37 1.509 3.37 3.37 3.37z" fill="#1689d6"/><path d="m258.49 59.0101c1.839 0 3.33-1.4909 3.33-3.33s-1.491-3.33-3.33-3.33-3.33 1.4909-3.33 3.33 1.491 3.33 3.33 3.33z" fill="#1689d6"/><path d="m272.14 73.0301c.729 0 1.32-.5909 1.32-1.32 0-.729-.591-1.32-1.32-1.32s-1.32.591-1.32 1.32c0 .7291.591 1.32 1.32 1.32z" fill="#1689d6"/><path d="m287.25 98.9999c1.143 0 2.07-.9268 2.07-2.07 0-1.1433-.927-2.07-2.07-2.07s-2.07.9267-2.07 2.07c0 1.1432.927 2.07 2.07 2.07z" fill="#1689d6"/><path d="m295.19 122.26c1.729 0 3.13-1.401 3.13-3.13s-1.401-3.13-3.13-3.13-3.13 1.401-3.13 3.13 1.401 3.13 3.13 3.13z" fill="#1689d6"/><path d="m298.82 143.91c1.546 0 2.8-1.254 2.8-2.8s-1.254-2.8-2.8-2.8-2.8 1.254-2.8 2.8 1.254 2.8 2.8 2.8z" fill="#1689d6"/><path d="m300.49 154.84c1.055 0 1.91-.855 1.91-1.91s-.855-1.91-1.91-1.91-1.91.855-1.91 1.91.855 1.91 1.91 1.91z" fill="#1689d6"/><path d="m288.01 171.2c1.922 0 3.48-1.558 3.48-3.48s-1.558-3.48-3.48-3.48-3.48 1.558-3.48 3.48 1.558 3.48 3.48 3.48z" fill="#1267ad"/><path d="m286.06 185.991c.746 0 1.35-.605 1.35-1.35 0-.746-.604-1.35-1.35-1.35s-1.35.604-1.35 1.35c0 .745.604 1.35 1.35 1.35z" fill="#1267ad"/><path d="m282.13 199.781c1.292 0 2.34-1.048 2.34-2.34 0-1.293-1.048-2.34-2.34-2.34s-2.34 1.047-2.34 2.34c0 1.292 1.048 2.34 2.34 2.34z" fill="#1267ad"/><path d="m269.39 227.88c1.491 0 2.7-1.208 2.7-2.7 0-1.491-1.209-2.7-2.7-2.7s-2.7 1.209-2.7 2.7c0 1.492 1.209 2.7 2.7 2.7z" fill="#1267ad"/><path d="m255.65 245.48c.757 0 1.37-.613 1.37-1.37 0-.756-.613-1.37-1.37-1.37s-1.37.614-1.37 1.37c0 .757.613 1.37 1.37 1.37z" fill="#1267ad"/><path d="m245.25 256.12c.895 0 1.62-.725 1.62-1.62 0-.894-.725-1.62-1.62-1.62s-1.62.726-1.62 1.62c0 .895.725 1.62 1.62 1.62z" fill="#1267ad"/><path d="m223.69 271.991c1.022 0 1.85-.829 1.85-1.85 0-1.022-.828-1.85-1.85-1.85s-1.85.828-1.85 1.85c0 1.021.828 1.85 1.85 1.85z" fill="#1267ad"/><path d="m212.07 278.07c.828 0 1.5-.671 1.5-1.5 0-.828-.672-1.5-1.5-1.5s-1.5.672-1.5 1.5c0 .829.672 1.5 1.5 1.5z" fill="#1267ad"/><path d="m188.97 288.63c2.104 0 3.81-1.706 3.81-3.81s-1.706-3.81-3.81-3.81-3.81 1.706-3.81 3.81 1.706 3.81 3.81 3.81z" fill="#1267ad"/><path d="m168.9 288.77c.751 0 1.36-.609 1.36-1.36s-.609-1.36-1.36-1.36-1.36.609-1.36 1.36.609 1.36 1.36 1.36z" fill="#1267ad"/><path d="m152.79 291.48c1.845 0 3.34-1.495 3.34-3.34 0-1.844-1.495-3.34-3.34-3.34s-3.34 1.496-3.34 3.34c0 1.845 1.495 3.34 3.34 3.34z" fill="#1267ad"/><path d="m135.07 288.44c1.292 0 2.34-1.047 2.34-2.34 0-1.292-1.048-2.34-2.34-2.34s-2.34 1.048-2.34 2.34c0 1.293 1.048 2.34 2.34 2.34z" fill="#1267ad"/><path d="m126.33 288.46c2.016 0 3.65-1.634 3.65-3.65s-1.634-3.65-3.65-3.65-3.65 1.634-3.65 3.65 1.634 3.65 3.65 3.65z" fill="#1267ad"/><path d="m104.96 280.43c1.795 0 3.25-1.455 3.25-3.25s-1.455-3.25-3.25-3.25-3.25 1.455-3.25 3.25 1.455 3.25 3.25 3.25z" fill="#1267ad"/><path d="m85.95 270.211c2.0379 0 3.69-1.653 3.69-3.69 0-2.038-1.6521-3.69-3.69-3.69s-3.69 1.652-3.69 3.69c0 2.037 1.6521 3.69 3.69 3.69z" fill="#1267ad"/><path d="m65.98 252.19c.9831 0 1.78-.797 1.78-1.78s-.7969-1.78-1.78-1.78-1.78.797-1.78 1.78.7969 1.78 1.78 1.78z" fill="#1267ad"/><path d="m58.53 245.87c1.6071 0 2.91-1.303 2.91-2.91s-1.3029-2.91-2.91-2.91c-1.6072 0-2.91 1.303-2.91 2.91s1.3028 2.91 2.91 2.91z" fill="#1267ad"/><path d="m43.29 222.941c1.0659 0 1.93-.865 1.93-1.93 0-1.066-.8641-1.93-1.93-1.93s-1.93.864-1.93 1.93c0 1.065.8641 1.93 1.93 1.93z" fill="#1267ad"/><path d="m31.84 197.531c2.1429 0 3.88-1.738 3.88-3.881 0-2.142-1.7371-3.879-3.88-3.879s-3.88 1.737-3.88 3.879c0 2.143 1.7371 3.881 3.88 3.881z" fill="#1267ad"/><path d="m29.45 187.801c.8726 0 1.58-.708 1.58-1.58 0-.873-.7074-1.58-1.58-1.58s-1.58.707-1.58 1.58c0 .872.7074 1.58 1.58 1.58z" fill="#1267ad"/><path d="m29.01 184.071c.8947 0 1.62-.726 1.62-1.62 0-.895-.7253-1.62-1.62-1.62s-1.62.725-1.62 1.62c0 .894.7253 1.62 1.62 1.62z" fill="#1267ad"/><path d="m26.46 156.49c1.3918 0 2.52-1.128 2.52-2.52s-1.1282-2.52-2.52-2.52-2.52 1.128-2.52 2.52 1.1282 2.52 2.52 2.52z" fill="#1267ad"/><path d="m27.38 148.45c1.3752 0 2.49-1.115 2.49-2.49s-1.1148-2.49-2.49-2.49-2.49 1.115-2.49 2.49 1.1148 2.49 2.49 2.49z" fill="#1267ad"/><path d="m31.12 126.02c1.8612 0 3.37-1.509 3.37-3.37s-1.5088-3.37-3.37-3.37-3.37 1.509-3.37 3.37 1.5088 3.37 3.37 3.37z" fill="#1267ad"/><path d="m37.24 107.87c1.3034 0 2.36-1.056 2.36-2.36 0-1.303-1.0566-2.36-2.36-2.36s-2.36 1.057-2.36 2.36c0 1.304 1.0566 2.36 2.36 2.36z" fill="#1267ad"/><path d="m39.76 100.67c1.0162 0 1.84-.8236 1.84-1.8398s-.8238-1.84-1.84-1.84-1.84.8238-1.84 1.84.8238 1.8398 1.84 1.8398z" fill="#1267ad"/><path d="m50.89 85.0103c2.0435 0 3.7-1.6565 3.7-3.7 0-2.0434-1.6565-3.6999-3.7-3.6999s-3.7 1.6565-3.7 3.6999c0 2.0435 1.6565 3.7 3.7 3.7z" fill="#1267ad"/><path d="m66.74 66.9404c1.8115 0 3.28-1.4685 3.28-3.28s-1.4685-3.28-3.28-3.28-3.28 1.4685-3.28 3.28 1.4685 3.28 3.28 3.28z" fill="#1267ad"/><path d="m72.76 60.3106c1.7784 0 3.22-1.4416 3.22-3.22s-1.4416-3.22-3.22-3.22-3.22 1.4416-3.22 3.22 1.4416 3.22 3.22 3.22z" fill="#1267ad"/><path d="m85.24 50.8703c1.4746 0 2.67-1.1954 2.67-2.67s-1.1954-2.67-2.67-2.67-2.67 1.1954-2.67 2.67 1.1954 2.67 2.67 2.67z" fill="#1267ad"/><path d="m110.41 38.0305c1.585 0 2.87-1.2849 2.87-2.87 0-1.585-1.285-2.87-2.87-2.87s-2.87 1.285-2.87 2.87c0 1.5851 1.285 2.87 2.87 2.87z" fill="#1267ad"/><path d="m119.24 34.6506c1.464 0 2.65-1.1865 2.65-2.65 0-1.4636-1.186-2.65-2.65-2.65s-2.65 1.1864-2.65 2.65c0 1.4635 1.186 2.65 2.65 2.65z" fill="#1267ad"/><path d="m149.02 28.9202c1.298 0 2.35-1.0521 2.35-2.35s-1.052-2.35-2.35-2.35-2.35 1.0521-2.35 2.35 1.052 2.35 2.35 2.35z" fill="#1267ad"/><path d="m164.25 29.5104c1.756 0 3.18-1.4237 3.18-3.18s-1.424-3.18-3.18-3.18-3.18 1.4237-3.18 3.18 1.424 3.18 3.18 3.18z" fill="#1267ad"/><path d="m181.01 31.9006c2.01 0 3.64-1.6297 3.64-3.64s-1.63-3.64-3.64-3.64-3.64 1.6297-3.64 3.64 1.63 3.64 3.64 3.64z" fill="#1267ad"/><path d="m193.2 32.9005c1.066 0 1.93-.8641 1.93-1.93s-.864-1.93-1.93-1.93-1.93.8641-1.93 1.93.864 1.93 1.93 1.93z" fill="#1267ad"/><path d="m205.32 37.1804c1.038 0 1.88-.8417 1.88-1.88s-.842-1.88-1.88-1.88-1.88.8417-1.88 1.88.842 1.88 1.88 1.88z" fill="#1267ad"/><path d="m223.45 46.0605c1.403 0 2.54-1.1372 2.54-2.54s-1.137-2.54-2.54-2.54-2.54 1.1372-2.54 2.54 1.137 2.54 2.54 2.54z" fill="#1267ad"/><path d="m229.82 50.5303c1.375 0 2.49-1.1148 2.49-2.49s-1.115-2.49-2.49-2.49-2.49 1.1148-2.49 2.49 1.115 2.49 2.49 2.49z" fill="#1267ad"/><path d="m245.33 62.7902c1.618 0 2.93-1.3118 2.93-2.93s-1.312-2.93-2.93-2.93-2.93 1.3118-2.93 2.93 1.312 2.93 2.93 2.93z" fill="#1267ad"/><path d="m259.36 76.3604c1.37 0 2.48-1.1103 2.48-2.48s-1.11-2.48-2.48-2.48-2.48 1.1103-2.48 2.48 1.11 2.48 2.48 2.48z" fill="#1267ad"/><path d="m268.38 90.2106c1.491 0 2.7-1.2089 2.7-2.7001 0-1.4911-1.209-2.7-2.7-2.7s-2.7 1.2089-2.7 2.7c0 1.4912 1.209 2.7001 2.7 2.7001z" fill="#1267ad"/><path d="m271.99 96.6802c1.922 0 3.48-1.558 3.48-3.48 0-1.9219-1.558-3.48-3.48-3.48s-3.48 1.5581-3.48 3.48c0 1.922 1.558 3.48 3.48 3.48z" fill="#1267ad"/><path d="m279.68 112.06c1.149 0 2.08-.931 2.08-2.08 0-1.148-.931-2.08-2.08-2.08s-2.08.932-2.08 2.08c0 1.149.931 2.08 2.08 2.08z" fill="#1267ad"/><path d="m282.14 118.351c.828 0 1.5-.672 1.5-1.5 0-.829-.672-1.5-1.5-1.5s-1.5.671-1.5 1.5c0 .828.672 1.5 1.5 1.5z" fill="#1267ad"/><path d="m286.71 136.56c.74 0 1.34-.6 1.34-1.34s-.6-1.34-1.34-1.34-1.34.6-1.34 1.34.6 1.34 1.34 1.34z" fill="#1267ad"/><path d="m289.23 158.661c.839 0 1.52-.681 1.52-1.52 0-.84-.681-1.52-1.52-1.52s-1.52.68-1.52 1.52c0 .839.681 1.52 1.52 1.52z" fill="#1267ad"/><path d="m276.86 167.59c1.116 0 2.02-.904 2.02-2.02 0-1.115-.904-2.02-2.02-2.02s-2.02.905-2.02 2.02c0 1.116.904 2.02 2.02 2.02z" fill="#1689d6"/><path d="m274.84 184.6c.834 0 1.51-.676 1.51-1.51s-.676-1.51-1.51-1.51-1.51.676-1.51 1.51.676 1.51 1.51 1.51z" fill="#1689d6"/><path d="m270.36 199.85c1.856 0 3.36-1.504 3.36-3.36 0-1.855-1.504-3.36-3.36-3.36s-3.36 1.505-3.36 3.36c0 1.856 1.504 3.36 3.36 3.36z" fill="#1689d6"/><path d="m256.61 225.761c1.033 0 1.87-.838 1.87-1.87 0-1.033-.837-1.87-1.87-1.87s-1.87.837-1.87 1.87c0 1.032.837 1.87 1.87 1.87z" fill="#1689d6"/><path d="m252.66 231.65c.851 0 1.54-.689 1.54-1.54 0-.85-.689-1.54-1.54-1.54s-1.54.69-1.54 1.54c0 .851.689 1.54 1.54 1.54z" fill="#1689d6"/><path d="m240.39 246.101c1.679 0 3.04-1.362 3.04-3.04 0-1.679-1.361-3.04-3.04-3.04s-3.04 1.361-3.04 3.04c0 1.678 1.361 3.04 3.04 3.04z" fill="#1689d6"/><path d="m227.12 258.12c2.143 0 3.88-1.737 3.88-3.88s-1.737-3.88-3.88-3.88-3.88 1.737-3.88 3.88 1.737 3.88 3.88 3.88z" fill="#1689d6"/><path d="m219.27 262.61c1.867 0 3.38-1.513 3.38-3.38s-1.513-3.38-3.38-3.38-3.38 1.513-3.38 3.38 1.513 3.38 3.38 3.38z" fill="#1689d6"/><path d="m193.74 273.96c1.751 0 3.17-1.419 3.17-3.17s-1.419-3.17-3.17-3.17-3.17 1.419-3.17 3.17 1.419 3.17 3.17 3.17z" fill="#1689d6"/><path d="m173.5 278.53c1.845 0 3.34-1.495 3.34-3.34s-1.495-3.34-3.34-3.34-3.34 1.495-3.34 3.34 1.495 3.34 3.34 3.34z" fill="#1689d6"/><path d="m160.38 280.58c2.143 0 3.88-1.737 3.88-3.88s-1.737-3.88-3.88-3.88-3.88 1.737-3.88 3.88 1.737 3.88 3.88 3.88z" fill="#1689d6"/><path d="m140.6 277.65c1.441 0 2.61-1.168 2.61-2.61 0-1.441-1.169-2.61-2.61-2.61s-2.61 1.169-2.61 2.61c0 1.442 1.169 2.61 2.61 2.61z" fill="#1689d6"/><path d="m130.15 275.27c.79 0 1.43-.64 1.43-1.43s-.64-1.43-1.43-1.43-1.43.64-1.43 1.43.64 1.43 1.43 1.43z" fill="#1689d6"/><path d="m111.96 268.96c.889 0 1.61-.721 1.61-1.61s-.721-1.61-1.61-1.61-1.61.721-1.61 1.61.721 1.61 1.61 1.61z" fill="#1689d6"/><path d="m99.03 264.52c1.872 0 3.39-1.518 3.39-3.39s-1.518-3.39-3.39-3.39c-1.8722 0-3.39 1.518-3.39 3.39s1.5178 3.39 3.39 3.39z" fill="#1689d6"/><path d="m92.48 259.12c1.1929 0 2.16-.967 2.16-2.16s-.9671-2.16-2.16-2.16-2.16.967-2.16 2.16.9671 2.16 2.16 2.16z" fill="#1689d6"/><path d="m75.99 247.09c1.6458 0 2.98-1.334 2.98-2.98 0-1.645-1.3342-2.98-2.98-2.98s-2.98 1.335-2.98 2.98c0 1.646 1.3342 2.98 2.98 2.98z" fill="#1689d6"/><path d="m69.13 240.09c1.5685 0 2.84-1.271 2.84-2.84 0-1.568-1.2715-2.84-2.84-2.84s-2.84 1.272-2.84 2.84c0 1.569 1.2715 2.84 2.84 2.84z" fill="#1689d6"/><path d="m60.8 228.94c.9775 0 1.77-.792 1.77-1.77 0-.977-.7925-1.77-1.77-1.77s-1.77.793-1.77 1.77c0 .978.7925 1.77 1.77 1.77z" fill="#1689d6"/><path d="m46.27 203.62c1.922 0 3.48-1.558 3.48-3.48s-1.558-3.48-3.48-3.48c-1.9219 0-3.48 1.558-3.48 3.48s1.5581 3.48 3.48 3.48z" fill="#1689d6"/><path d="m41.22 184.41c1.9551 0 3.54-1.585 3.54-3.54s-1.5849-3.54-3.54-3.54-3.54 1.585-3.54 3.54 1.5849 3.54 3.54 3.54z" fill="#1689d6"/><path d="m39.18 175.27c1.9551 0 3.54-1.584 3.54-3.54 0-1.955-1.5849-3.54-3.54-3.54s-3.54 1.585-3.54 3.54c0 1.956 1.5849 3.54 3.54 3.54z" fill="#1689d6"/><path d="m38.22 149.08c.8063 0 1.46-.654 1.46-1.46s-.6537-1.46-1.46-1.46-1.46.654-1.46 1.46.6537 1.46 1.46 1.46z" fill="#1689d6"/><path d="m38.31 157.25c1.9993 0 3.62-1.62 3.62-3.62 0-1.999-1.6207-3.62-3.62-3.62s-3.62 1.621-3.62 3.62c0 2 1.6207 3.62 3.62 3.62z" fill="#1689d6"/><path d="m40.24 136.19c1.7176 0 3.11-1.392 3.11-3.11 0-1.717-1.3924-3.11-3.11-3.11s-3.11 1.393-3.11 3.11c0 1.718 1.3924 3.11 3.11 3.11z" fill="#1689d6"/><path d="m41.76 128.93c1.5685 0 2.84-1.271 2.84-2.84 0-1.568-1.2715-2.84-2.84-2.84s-2.84 1.272-2.84 2.84c0 1.569 1.2715 2.84 2.84 2.84z" fill="#1689d6"/><path d="m45.76 115.57c.9775 0 1.77-.792 1.77-1.77 0-.977-.7925-1.77-1.77-1.77s-1.77.793-1.77 1.77c0 .978.7925 1.77 1.77 1.77z" fill="#1689d6"/><path d="m44.68 119.95c1.1156 0 2.02-.904 2.02-2.02 0-1.115-.9044-2.02-2.02-2.02s-2.02.905-2.02 2.02c0 1.116.9044 2.02 2.02 2.02z" fill="#1689d6"/><path d="m48.46 110.47c1.7176 0 3.11-1.392 3.11-3.11 0-1.717-1.3924-3.11-3.11-3.11s-3.11 1.393-3.11 3.11c0 1.718 1.3924 3.11 3.11 3.11z" fill="#1689d6"/><path d="m60.92 87.9601c.9389 0 1.7-.7612 1.7-1.7 0-.9389-.7611-1.7-1.7-1.7s-1.7.7611-1.7 1.7c0 .9388.7611 1.7 1.7 1.7z" fill="#1689d6"/><path d="m67.22 80.7301c1.3531 0 2.45-1.0969 2.45-2.45s-1.0969-2.45-2.45-2.45-2.45 1.0969-2.45 2.45 1.0969 2.45 2.45 2.45z" fill="#1689d6"/><path d="m82.5 65.3801c1.3144 0 2.38-1.0655 2.38-2.38 0-1.3144-1.0656-2.38-2.38-2.38s-2.38 1.0656-2.38 2.38c0 1.3145 1.0656 2.38 2.38 2.38z" fill="#1689d6"/><path d="m89.68 61.2603c1.7949 0 3.25-1.4551 3.25-3.25 0-1.795-1.4551-3.25-3.25-3.25s-3.25 1.455-3.25 3.25c0 1.7949 1.4551 3.25 3.25 3.25z" fill="#1689d6"/><path d="m99.86 53.8103c1.022 0 1.85-.8282 1.85-1.8499 0-1.0218-.828-1.85-1.85-1.85-1.0217 0-1.85.8282-1.85 1.85 0 1.0217.8283 1.8499 1.85 1.8499z" fill="#1689d6"/><path d="m117.4 45.8505c.845 0 1.53-.685 1.53-1.53s-.685-1.53-1.53-1.53-1.53.685-1.53 1.53.685 1.53 1.53 1.53z" fill="#1689d6"/><path d="m124.96 43.4403c1.011 0 1.83-.8193 1.83-1.83s-.819-1.83-1.83-1.83-1.83.8193-1.83 1.83.819 1.83 1.83 1.83z" fill="#1689d6"/><path d="m142.96 41.2403c1.9 0 3.44-1.5401 3.44-3.4399 0-1.8999-1.54-3.44-3.44-3.44s-3.44 1.5401-3.44 3.44c0 1.8998 1.54 3.4399 3.44 3.4399z" fill="#1689d6"/><path d="m152.88 40.3703c1.745 0 3.16-1.4148 3.16-3.16s-1.415-3.16-3.16-3.16-3.16 1.4148-3.16 3.16 1.415 3.16 3.16 3.16z" fill="#1689d6"/><path d="m172.81 41.4403c1.707 0 3.09-1.3835 3.09-3.09 0-1.7066-1.383-3.09-3.09-3.09s-3.09 1.3834-3.09 3.09c0 1.7065 1.383 3.09 3.09 3.09z" fill="#1689d6"/><path d="m195.36 45.4501c1.132 0 2.05-.9178 2.05-2.05s-.918-2.05-2.05-2.05-2.05.9178-2.05 2.05.918 2.05 2.05 2.05z" fill="#1689d6"/><path d="m209.38 51.0003c1.43 0 2.59-1.1596 2.59-2.59s-1.16-2.59-2.59-2.59-2.59 1.1596-2.59 2.59 1.16 2.59 2.59 2.59z" fill="#1689d6"/><path d="m224.98 61.7101c2.043 0 3.7-1.6566 3.7-3.7 0-2.0435-1.657-3.7-3.7-3.7s-3.7 1.6565-3.7 3.7c0 2.0434 1.657 3.7 3.7 3.7z" fill="#1689d6"/><path d="m241.06 75.1003c2.143 0 3.88-1.7371 3.88-3.88 0-2.1428-1.737-3.88-3.88-3.88s-3.88 1.7372-3.88 3.88c0 2.1429 1.737 3.88 3.88 3.88z" fill="#1689d6"/><path d="m247.11 78.6204c.746 0 1.35-.6044 1.35-1.35s-.604-1.35-1.35-1.35-1.35.6044-1.35 1.35.604 1.35 1.35 1.35z" fill="#1689d6"/><path d="m263.21 103.44c1.845 0 3.34-1.495 3.34-3.34 0-1.8444-1.495-3.3397-3.34-3.3397s-3.34 1.4953-3.34 3.3397c0 1.845 1.495 3.34 3.34 3.34z" fill="#1689d6"/><path d="m273.35 128.85c1.861 0 3.37-1.508 3.37-3.37 0-1.861-1.509-3.37-3.37-3.37s-3.37 1.509-3.37 3.37c0 1.862 1.509 3.37 3.37 3.37z" fill="#1689d6"/><path d="m273.95 128.97c.994 0 1.8-.806 1.8-1.8s-.806-1.8-1.8-1.8-1.8.806-1.8 1.8.806 1.8 1.8 1.8z" fill="#1689d6"/><path d="m276.47 146.13c.801 0 1.45-.649 1.45-1.45 0-.8-.649-1.45-1.45-1.45s-1.45.65-1.45 1.45c0 .801.649 1.45 1.45 1.45z" fill="#1689d6"/><path d="m277.87 160.15c1.845 0 3.34-1.495 3.34-3.34 0-1.844-1.495-3.34-3.34-3.34s-3.34 1.496-3.34 3.34c0 1.845 1.495 3.34 3.34 3.34z" fill="#1689d6"/><path d="m589.05 125.98 14.26-31.71v-1.14c0-3.8-1.87-6.09-5.62-6.86-3.74-.77-6.39.57-7.93 4.01-.12.12-.36.6-.71 1.43-.48 1.07-1.07 2.44-1.78 4.1-1.9 3.92-4.1 8.74-6.6 14.44-6.06 13.31-12.72 27.99-19.97 44.03l-19.97 43.85-2.67 5.71-2.5-5.71c-6.06-13.43-12.78-28.17-20.15-44.21-7.25-16.16-13.91-30.9-19.97-44.21-2.5-5.71-4.7-10.58-6.6-14.62-.71-1.66-1.31-3.03-1.78-4.1-.36-.83-.6-1.31-.71-1.43-1.07-2.26-2.7-3.62-4.9-4.1-2.2-.47-4.19-.03-5.97 1.34s-2.67 3.3-2.67 5.79v5.35c0 3.92.06 8.68.18 14.26 0 13.19.06 27.69.18 43.5s.24 30.25.36 43.32v19.79c.12 2.02.89 3.71 2.32 5.08s3.09 2.05 4.99 2.05c2.02-.12 3.71-.89 5.08-2.32s1.99-3.09 1.87-4.99v-19.61c-.12-13.19-.24-27.69-.36-43.5-.12-10.93-.18-20.74-.18-29.42l15.33 33.69 19.97 44.21c2.5 5.7 4.69 10.52 6.6 14.44.71 1.67 1.31 3.03 1.78 4.1.36.83.59 1.31.71 1.43 1.19 2.85 3.33 4.28 6.42 4.28 1.48 0 2.97-.33 4.21-1.18 1.5-1.04 2.11-2.54 2.85-4.15 2.89-6.3 5.75-12.61 8.63-18.91l19.97-43.86 15.33-34.23v.04z" fill="#1689d6"/><path d="m603.49 156.96c-.09-11.82-.14-22.91-.17-33.29l-14.1 31.78v1.51 43.68c0 5.71.06 10.52.18 14.44v5.53c0 1.9.71 3.57 2.14 4.99 1.43 1.43 3.09 2.14 4.99 2.14s3.57-.71 4.99-2.14c1.43-1.43 2.14-3.09 2.14-4.99v-5.53c-.12-3.92-.18-8.74-.18-14.44v-43.68z" fill="#1267ad"/><path d="m657.15 156.07c0-10.22-.03-19.89-.07-29.03l-14.37-15.8v.98c.12 13.31.18 27.93.18 43.86.12 15.93.18 30.55.18 43.86.12 5.71.18 10.52.18 14.44v5.53c0 1.9.68 3.57 2.05 4.99 1.36 1.43 3.06 2.14 5.08 2.14s3.71-.71 5.08-2.14c1.36-1.43 2.05-3.09 2.05-4.99v-5.53c0-3.92-.06-8.74-.18-14.44 0-13.31-.06-27.93-.18-43.86z" fill="#1267ad"/><path d="m740.05 165.87v-30.13c-.12-10.93-.18-20.92-.18-29.95 0-3.92-.06-7.2501-.18-9.9801v-3.74c0-2.02-.71-3.71-2.14-5.08-1.43-1.36-3.09-2.05-4.99-2.05s-3.57.69-4.99 2.05c-1.43 1.37-2.14 3.06-2.14 5.08v3.74c.12 2.74.18 6.0601.18 9.9801 0 9.15.06 19.19.18 30.13v19.25l-1.07-1.07-28.52-27.28c-10.46-9.86-19.97-18.9-28.52-27.1001-3.69-3.57-6.84-6.54-9.45-8.91l-2.32-2.32c-1.43-2.26-3.45-3.39-6.06-3.39-3.57 0-5.82 1.6-6.77 4.81-.48 1.07-.6 2.32-.36 3.74v.39s14.93 15.7901 15.15 16.0101l28.52 27.1c10.34 9.87 19.85 18.96 28.52 27.28 3.68 3.45 10.34 10.04 10.7 10.16v4.46c0 4.99.06 10.46.18 16.4v23.71c0 1.9.71 3.57 2.14 4.99 1.43 1.43 3.09 2.14 4.99 2.14s3.57-.71 4.99-2.14c1.43-1.43 2.53-3.09 2.53-4.99v-23.89c-.12-5.11-.22-15.33-.22-15.69v-3.74c0-2.73-.06-6.06-.18-9.98z" fill="#1689d6"/></svg>