<svg fill="none" height="104" viewBox="0 0 415 104" width="415" xmlns="http://www.w3.org/2000/svg" xmlns:xlink="http://www.w3.org/1999/xlink"><radialGradient id="a" cx="0" cy="0" gradientTransform="matrix(-50.4142 -0 0 -50.4141 51.7726 56.4598)" gradientUnits="userSpaceOnUse" r="1"><stop offset=".28" stop-color="#daabff"/><stop offset=".87" stop-color="#735dff"/></radialGradient><linearGradient id="b" gradientUnits="userSpaceOnUse" x1="1.71116" x2="52.2965" y1="44.2783" y2="72.1582"><stop offset=".42" stop-color="#c6b2ff"/><stop offset=".84" stop-color="#735dff"/></linearGradient><linearGradient id="c"><stop offset="0" stop-color="#fff" stop-opacity="0"/><stop offset=".1" stop-color="#fff" stop-opacity=".01"/><stop offset=".3" stop-color="#fff" stop-opacity=".0729"/><stop offset=".59" stop-color="#fff" stop-opacity=".3481"/><stop offset=".94" stop-color="#fff"/></linearGradient><linearGradient id="d" gradientUnits="userSpaceOnUse" x1="32.4555" x2="48.1393" xlink:href="#c" y1="16.5379" y2="75.0715"/><radialGradient id="e" cx="0" cy="0" gradientTransform="matrix(50.4142 0 0 50.4141 56.4012 47.5378)" gradientUnits="userSpaceOnUse" r="1"><stop offset=".22" stop-color="#ffd522"/><stop offset=".27" stop-color="#ffca27"/><stop offset=".34" stop-color="#ffac37"/><stop offset=".45" stop-color="#ff7d50"/><stop offset=".54" stop-color="#ff4b6c"/><stop offset="1" stop-color="#c81395"/></radialGradient><linearGradient id="f" gradientUnits="userSpaceOnUse" x1="52.4813" x2="97.8652" y1="54.9956" y2="47.9155"><stop offset=".35" stop-color="#f02173"/><stop offset=".61" stop-color="#e81db8"/><stop offset=".76" stop-color="#c516e1"/><stop offset="1" stop-color="#735dff"/></linearGradient><linearGradient id="g" gradientUnits="userSpaceOnUse" x1="42.5233" x2="64.2395" y1="38.886" y2="38.886"><stop offset="0" stop-color="#fff"/><stop offset=".45" stop-color="#fff" stop-opacity=".2601"/><stop offset=".8" stop-color="#fff" stop-opacity=".0196"/><stop offset=".96" stop-color="#fff" stop-opacity="0"/></linearGradient><linearGradient id="h" gradientUnits="userSpaceOnUse" x1="75.7641" x2="60.0782" xlink:href="#c" y1="87.476" y2="28.9382"/><linearGradient id="i" gradientUnits="userSpaceOnUse" x1="317.76" x2="398.76" y1="52" y2="52"><stop offset="0" stop-color="#fc6337"/><stop offset="1" stop-color="#c516e1"/></linearGradient><path d="m66.6132 64.525-45.795-45.8095c-1.7179-1.7116-4.6463-.4947-4.6463 1.9286 0 12.7304 2.3482 31.7538 9.3385 41.9836 9.9376 14.5442 28.2598 16.2098 41.1028 1.8973z" fill="url(#a)"/><path d="m16.1719 77.871c0 6.5666 6.1575 11.4028 12.532 9.8311 13.3274-3.2875 27.0053-10.0022 38.093-22.9935l-.1837-.1837c-12.841 14.3125-31.1652 12.6469-41.1028-1.8973-6.9882-10.2298-9.3385-29.2532-9.3385-41.9836v57.2291z" fill="url(#b)"/><path d="m66.5075 64.395c-12.841 14.3125-30.6998 12.5571-40.6958-1.9474-6.6981-9.7205-9.1945-28.8232-9.1945-41.5536" stroke="url(#d)" stroke-miterlimit="10" stroke-width=".841175"/><path d="m41.5605 39.4767 45.7951 45.8095c1.7178 1.7116 4.6463.4947 4.6463-1.9286 0-12.7303-2.3482-31.7538-9.3385-41.9836-9.9376-14.5441-28.2598-16.2098-41.1029-1.8973z" fill="url(#e)"/><path d="m92.002 26.1285c0-6.5666-6.1575-11.4028-12.5321-9.8311-13.3273 3.2875-27.0053 10.0023-38.0929 22.9935l.1836.1837c12.841-14.3125 31.1653-12.6469 41.1029 1.8973 6.9882 10.2298 9.3385 29.2532 9.3385 41.9836v-57.2291z" fill="url(#f)"/><path d="m43.4668 37.498s12.937-13.9952 29.9734-4.855c-8.345 8.3449-15.5816 15.5815-15.5816 15.5815l-14.3918-10.7286z" fill="url(#g)"/><path d="m41.6787 39.6293c12.841-14.3125 30.7582-12.5967 40.6958 1.9474 6.9882 10.2298 9.1945 28.8233 9.1945 41.5536" stroke="url(#h)" stroke-miterlimit="10" stroke-width=".841175"/><path d="m54.0816 69.9678c9.9231 0 17.9673-8.0442 17.9673-17.9673 0-9.923-8.0442-17.9673-17.9673-17.9673s-17.9673 8.0443-17.9673 17.9673c0 9.9231 8.0442 17.9673 17.9673 17.9673z" fill="#fff"/><g fill="#1d1136"><path d="m179.458 32.6157v35.8991h-8.617v-32.741l2.106.144-14.598 32.597h-9.238l-14.599-32.501 2.106-.192v32.693h-8.616v-35.8991h13.928l13.643 31.399h-3.638l13.594-31.399z"/><path d="m198.259 52.6244c0 1.7554.344 3.2791 1.029 4.5711.667 1.2733 1.711 2.3107 2.991 2.9682 1.308.6867 2.92 1.029 4.834 1.029s3.525-.3423 4.834-1.029c1.279-.6575 2.323-1.6928 2.991-2.9682.687-1.292 1.029-2.8157 1.029-4.5711v-20.0087h9.046v20.4387c0 3.254-.749 6.0948-2.25 8.5202-1.517 2.4422-3.69 4.4063-6.27 5.6733-2.68 1.3567-5.807 2.033-9.382 2.0351-3.576 0-6.703-.6784-9.383-2.0351-2.582-1.2649-4.752-3.2311-6.27-5.6733-1.501-2.4254-2.25-5.2641-2.25-8.5202v-20.4387h9.046v20.0087z"/><path d="m259.755 68.5146h10.483l-8.934-11.3611c-.499-.6345-1.123-1.1605-1.832-1.5467-.71-.3861-1.491-.6241-2.296-.6971l-.272-.0251c.073-.0146 2.76-.0313 2.833-.048 1.029-.2254 2.031-.5656 2.984-1.0144 1.902-.8641 3.526-2.2396 4.691-3.9721 1.116-1.6907 1.676-3.6527 1.676-5.8882s-.56-4.2434-1.676-5.9341c-1.167-1.7325-2.791-3.108-4.691-3.9721-2.01-.9581-4.356-1.4361-7.036-1.4361h-20.916v35.8991h9.046v-13.2584h2.811c.91 0 1.81.2088 2.626.6116.816.4029 1.532.9873 2.085 1.7095l8.414 10.9373zm-15.94-29.0069h10.674c1.691 0 3.031.3903 4.02 1.173.99.7827 1.484 1.8744 1.484 3.2791 0 1.4048-.494 2.4985-1.484 3.2791-.989.7828-2.329 1.1731-4.02 1.1731h-10.674v-8.9023z"/><path d="m309.368 40.322v-7.7063h-31.257v35.8991h9.047v-9.5764c0-.9768.388-1.9119 1.079-2.6028s1.628-1.0791 2.603-1.0791h17.666v-7.7063h-17.583c-.753 0-1.494.1921-2.154.5573-.657.3653-1.213.8934-1.611 1.5321v-9.3176z"/></g><path d="m317.468 68.5 14.998-35.6448h6.647l14.998 35.6448h-7.329l-9.836-24.8588c-.309-.7467-.577-1.4852-.804-2.2157-.211-.7466-.414-1.4446-.609-2.0939h-.267c-.179.6493-.382 1.3473-.609 2.0939-.211.7305-.471 1.469-.779 2.2157l-9.934 24.8588zm7.012-8.2051 1.826-5.0887h18.577l1.875 5.0887zm31.181 8.2051v-35.45h14.584c4.594 0 8.132.9658 10.615 2.8973 2.484 1.9154 3.726 4.7397 3.726 8.473 0 3.6846-1.242 6.5251-3.726 8.5216-2.483 1.9803-6.021 2.938-10.615 2.873h-7.816v12.6851zm6.768-17.7494h7.378c2.921 0 4.983-.5437 6.184-1.6312 1.217-1.1038 1.826-2.6702 1.826-4.6991 0-2.029-.609-3.571-1.826-4.6261-1.201-1.0713-3.263-1.6069-6.184-1.6069h-7.378zm25.216 17.7494v-35.45h6.842v35.45z" fill="url(#i)"/></svg>