<svg width="724" height="113" viewBox="0 0 724 113" fill="none" xmlns="http://www.w3.org/2000/svg">
<g clip-path="url(#clip0_142_8)">
<path d="M100.492 42.3676C98.9329 42.3816 97.3804 42.1157 95.9496 41.5979C91.8454 40.1111 89.8926 37.1198 89.8508 32.855C89.8264 30.427 89.8508 27.9569 90.2511 25.5744C90.7767 22.4466 93.0882 20.5784 95.9079 19.7177C97.4325 19.2524 98.9642 18.9935 100.492 19.0005C102.052 18.9865 103.605 19.2524 105.035 19.7702C109.14 21.2571 111.093 24.2484 111.134 28.5132C111.159 30.9412 111.134 33.4112 110.734 35.7937C110.208 38.9215 107.896 40.7898 105.077 41.6505C103.552 42.1157 102.021 42.3746 100.492 42.3676ZM70.8087 20.6995C69.0777 19.5949 67.1712 19.5174 65.2237 19.4383C64.9937 19.4289 64.7632 19.4196 64.5323 19.4085C58.5101 19.1146 54.6147 25.1567 55.6277 30.2962C55.7027 30.3023 55.78 30.3078 55.859 30.3136C56.0475 30.3272 56.2451 30.3414 56.4388 30.3661C60.2855 30.8769 63.4044 32.4723 65.1381 36.1912C66.795 39.7423 67.2197 43.4088 66.99 47.3483C66.7358 51.634 65.9317 55.7659 64.689 59.8067C62.5482 66.7724 59.5718 73.3883 55.7426 79.5913C54.9582 80.8607 54.09 82.0766 53.1851 83.3438C52.7607 83.9381 52.3282 84.5438 51.8925 85.1715C51.8028 84.8922 51.7223 84.6585 51.6515 84.4529C51.5271 84.0919 51.4325 83.8173 51.3704 83.5343C51.0571 82.0938 50.7525 80.6512 50.4478 79.2085C49.8691 76.4677 49.2902 73.7263 48.6517 70.9988L48.545 70.5432C46.9828 63.8692 45.42 57.1928 43.6876 50.5635C41.6477 42.765 39.3571 35.0402 35.1206 28.0815C33.4045 25.2616 31.3854 22.7811 28.2177 21.4412C24.3119 19.7898 20.3226 19.5344 16.1487 20.0977C10.5198 20.8569 5.39916 22.8966 0.556973 25.7584C0.352635 25.8802 0.25209 26.1797 0.151286 26.4799C0.104403 26.6195 0.0574633 26.7593 0 26.8815L0.501277 27.0669C3.6064 25.1462 7.25458 26.2482 9.1274 28.7182C10.6417 30.716 12.1559 32.7521 13.3569 34.9457C17.6804 42.8421 20.8169 51.2562 23.3581 59.8697C25.9161 68.5372 28.2884 77.2598 30.6609 85.9829C31.0264 87.3265 31.3918 88.6703 31.7579 90.0136C32.0573 91.1122 32.4437 91.525 33.5855 91.5075C35.5201 91.4799 37.4555 91.4817 39.3909 91.4835C41.6241 91.4856 43.8573 91.4877 46.0896 91.4445C46.7962 91.4306 47.7118 91.0947 48.1643 90.5804C48.5184 90.1772 48.873 89.7741 49.2275 89.371C52.3615 85.8076 55.501 82.238 58.4405 78.5137C63.3731 72.2652 67.6444 65.5759 70.8227 58.2254C74.8642 48.8736 76.6048 39.1616 75.2924 29.0016C74.8677 25.7129 73.8338 22.6307 70.8053 20.6995H70.8087ZM105.035 69.9529C103.605 69.4351 102.052 69.1692 100.492 69.1832C98.9642 69.1762 97.4325 69.4351 95.9079 69.9003C93.0882 70.761 90.7767 72.6293 90.2511 75.7571C89.8508 78.1395 89.8264 80.6096 89.8508 83.0376C89.8926 87.3024 91.8454 90.2937 95.9497 91.7806C97.3804 92.2984 98.9329 92.5642 100.492 92.5503C102.021 92.5572 103.552 92.2984 105.077 91.8331C107.896 90.9724 110.208 89.1042 110.734 85.9765C111.134 83.5939 111.159 81.1238 111.134 78.6958C111.093 74.431 109.14 71.4397 105.035 69.9529Z" fill="black"/>
</g>
<path d="M240.504 90H220.44L201.24 38.448C201.88 43.504 202.36 47.984 202.68 51.888C203.064 55.728 203.256 60.304 203.256 65.616V90H189.24V23.472H208.824L228.504 75.12C227.096 66.352 226.392 58.096 226.392 50.352V23.472H240.504V90ZM295.616 23.472L293.984 34.704H270.56V50.64H291.008V61.68H270.56V78.672H295.616V90H254.816V23.472H295.616ZM358.243 67.92C358.243 72.464 357.251 76.528 355.267 80.112C353.347 83.696 350.435 86.512 346.531 88.56C342.627 90.608 337.859 91.632 332.227 91.632C323.779 91.632 317.347 89.488 312.931 85.2C308.515 80.912 306.307 75.152 306.307 67.92V23.472H322.051V67.248C322.051 71.536 322.851 74.736 324.451 76.848C326.115 78.896 328.707 79.92 332.227 79.92C335.811 79.92 338.403 78.896 340.003 76.848C341.667 74.736 342.499 71.536 342.499 67.248V23.472H358.243V67.92ZM393.223 23.472C401.991 23.472 408.807 25.296 413.671 28.944C418.535 32.592 420.967 38 420.967 45.168C420.967 52.656 418.567 58.32 413.767 62.16C409.031 65.936 402.663 67.824 394.663 67.824H387.463V90H371.719V23.472H393.223ZM393.319 56.496C397.031 56.496 399.847 55.632 401.767 53.904C403.751 52.112 404.743 49.2 404.743 45.168C404.743 38.192 400.839 34.704 393.031 34.704H387.463V56.496H393.319ZM466.913 90V61.488H446.945V90H431.201V23.472H446.945V49.2H466.913V23.472H482.657V90H466.913ZM523.939 21.84C533.411 21.84 540.771 24.88 546.019 30.96C551.331 37.04 553.987 45.616 553.987 56.688C553.987 63.92 552.771 70.16 550.339 75.408C547.971 80.656 544.515 84.688 539.971 87.504C535.491 90.256 530.147 91.632 523.939 91.632C517.731 91.632 512.387 90.256 507.907 87.504C503.427 84.752 499.971 80.784 497.539 75.6C495.171 70.352 493.987 64.048 493.987 56.688C493.987 49.52 495.171 43.312 497.539 38.064C499.971 32.816 503.427 28.816 507.907 26.064C512.387 23.248 517.731 21.84 523.939 21.84ZM523.939 33.36C519.395 33.36 516.003 35.216 513.763 38.928C511.587 42.576 510.499 48.496 510.499 56.688C510.499 64.88 511.619 70.832 513.859 74.544C516.099 78.256 519.459 80.112 523.939 80.112C528.547 80.112 531.939 78.288 534.115 74.64C536.355 70.928 537.475 64.944 537.475 56.688C537.475 48.432 536.355 42.48 534.115 38.832C531.875 35.184 528.483 33.36 523.939 33.36ZM616.618 90H596.554L577.354 38.448C577.994 43.504 578.474 47.984 578.794 51.888C579.178 55.728 579.37 60.304 579.37 65.616V90H565.354V23.472H584.938L604.618 75.12C603.21 66.352 602.506 58.096 602.506 50.352V23.472H616.618V90ZM646.674 23.472V90H630.93V23.472H646.674ZM688.143 21.84C692.303 21.84 695.983 22.448 699.183 23.664C702.447 24.88 705.519 26.704 708.399 29.136L700.911 38.064C698.927 36.528 696.975 35.376 695.055 34.608C693.135 33.84 691.087 33.456 688.911 33.456C684.431 33.456 680.879 35.344 678.255 39.12C675.695 42.896 674.415 48.72 674.415 56.592C674.415 64.336 675.695 70.096 678.255 73.872C680.879 77.584 684.495 79.44 689.103 79.44C691.535 79.44 693.743 78.992 695.727 78.096C697.711 77.136 699.855 75.792 702.159 74.064L709.167 83.088C706.671 85.584 703.631 87.632 700.047 89.232C696.527 90.832 692.623 91.632 688.335 91.632C682.191 91.632 676.847 90.288 672.303 87.6C667.759 84.912 664.207 80.944 661.647 75.696C659.151 70.384 657.903 64.016 657.903 56.592C657.903 49.36 659.183 43.12 661.743 37.872C664.367 32.624 667.951 28.656 672.495 25.968C677.103 23.216 682.319 21.84 688.143 21.84Z" fill="black"/>
<defs>
<clipPath id="clip0_142_8">
<rect width="112" height="74" fill="white" transform="translate(0 19)"/>
</clipPath>
</defs>
</svg>
