<svg fill="none" height="50" viewBox="0 0 171 50" width="171" xmlns="http://www.w3.org/2000/svg"><g fill="#000"><path d="m10.3916 26.9739c0-1.1531 1.2377-1.8827 2.2466-1.3244l2.5857 1.4309c.4964.2747.8045.7973.8045 1.3647 0 1.1366-1.219 1.8568-2.2145 1.3083l-2.639-1.4537c-.4832-.2662-.7833-.7742-.7833-1.3258z"/><path d="m22.0659 5.73488c.3009.1685.2979.60256-.0053.7669l-2.0768 1.12563c-.2602.1411-.574.1411-.8343.0001l-.2029-.1099c-.3021-.1636-.3066-.59555-.0079-.76545l2.0227-1.1508c.2667-.15168.5932-.15279.8609-.00291z"/><path clip-rule="evenodd" d="m22.4967.594683c-.4664-.26166-1.0353-.26166-1.5016 0l-19.72579 11.068417c-.48388.2715-.78347.7831-.78347 1.338v24.1517c0 .5565.3017 1.0693.78816 1.3395l19.6933 10.9408c.1209.0682.2488.1186.3801.1515.3729.0933.7724.044 1.1161-.147l19.7013-10.9453c.0798-.0443.1547-.0952.224-.1517.3852-.287.6172-.7417.6172-1.23v-24.1095c0-.5549-.2996-1.0665-.7835-1.338zm-2.3097 25.337217c-.0067-.6287-.3501-1.2063-.9006-1.5121l-13.13422-7.2968c-1.13231-.6291-2.51606.1463-2.59788 1.4122v16.8013c.03074.4657.24601.8964.59158 1.2l3.99031 2.2168c1.06103.3195 2.20031-.4675 2.20031-1.6447v-2.2c0-1.3353 1.4344-2.1793 2.6017-1.5308l4.6472 2.5818c1.1617.6454 2.5879-.1875 2.6016-1.5117zm3.0931 5.9902v-6.2864c.0932-.51.4096-.9589.8723-1.2159l4.3654-2.4253c.0023-.0013.0046-.0025.0069-.0038.5824-.3171 1.294.1042 1.294.7692v1.5999c0 1.158 1.2351 1.8976 2.2559 1.3507.4979-.2667.8087-.7858.8087-1.3507v-3.7601c0-.6345.3432-1.2193.897-1.5288.0013-.0007.0025-.0014.0038-.0021l3.5025-1.9458c1.1672-.6485 2.6017.1955 2.6017 1.5308v16.567c0 .5614-.2686 1.0838-.714 1.411l-13.5251 7.5141c-1.025.4124-2.175-.2354-2.3691-1.3075v-4.0593c.0931-.5098.4094-.9586.8718-1.2157l10.1932-5.6673c.4821-.268.7792-.7779.7747-1.3294-.0093-1.1413-1.2344-1.8585-2.234-1.3079l-7.0381 3.8765c-1.0703.5895-2.361-.0717-2.5676-1.2132zm-17.01046-18.3153 15.04786 8.36c.2985.0704.6113.0613.9061-.0274l14.8963-8.2758c.3749-.3951.3053-1.0752-.2101-1.3644l-4.4578-2.5013c-.5185-.2909-1.1508-.2923-1.6706-.0037l-8.2119 4.5597c-.5287.2936-1.1715.2936-1.7002 0l-8.2119-4.5597c-.5198-.2886-1.1521-.2872-1.6706.0038l-4.45769 2.5013c-.49147.2757-.57754.9069-.25947 1.3075zm15.87826-9.59064c-.2661-.14933-.5908-.14933-.8569 0l-4.9619 2.78415c-.5977.33539-.5958 1.19639.0035 1.52919l4.5367 2.519c.5287.2936 1.1715.2936 1.7002 0l.504-.2798c.301-.1671.3002-.6002-.0012-.7663l-1.3141-.724c-.302-.1663-.3021-.6002-.0002-.7668l2.056-1.1343c.2632-.1452.5824-.1453.8457-.0002l1.8449 1.017c.2639.1455.5842.1451.8477-.0013l.4397-.2441c.2996-.1664.3006-.5969.0017-.7646z" fill-rule="evenodd"/><path d="m58.5773 15.5146h6.7588c3.8787 0 6.3365 2.445 6.3365 6.3237 0 3.8402-2.5346 6.2852-6.5157 6.2852h-2.9442v5.8628h-3.6354zm3.6354 2.9826v6.6309h2.2018c2.3809 0 3.5714-1.0881 3.5714-3.3154 0-2.2146-1.1905-3.3155-3.5714-3.3155zm25.7302 12.2761v3.213h-11.6872v-18.4717h3.5971v15.2587zm13.8511 3.213-1.152-4.5187h-5.4918l-1.1777 4.5187h-3.6354l5.5428-18.4717h4.3011l5.543 18.4717zm-3.968-14.849-1.9461 7.4885h4.0321l-1.92-7.4885zm18.651 14.849h-3.636v-6.8228l-5.926-11.6489h3.93l3.699 7.8726h.23l3.7-7.8726h3.93l-5.927 11.6489zm14.811.2432c-1.549 0-2.816-1.3056-2.816-2.8802 0-1.5873 1.267-2.893 2.816-2.893s2.816 1.3057 2.816 2.893c0 1.5746-1.267 2.8802-2.816 2.8802zm20.392-.2432-1.152-4.5187h-5.491l-1.178 4.5187h-3.636l5.543-18.4717h4.301l5.543 18.4717zm-3.968-14.849-1.946 7.4885h4.032l-1.92-7.4885zm22.479 14.849h-11.291v-3.1234h3.828v-12.2248h-3.828v-3.1235h11.291v3.1235h-3.828v12.2248h3.828z"/></g></svg>