<svg fill="none" height="192" viewBox="0 0 831 192" width="831" xmlns="http://www.w3.org/2000/svg"><g fill="#000"><path d="m197.3 64.2c23.2 0 42.7 15.4 42.7 44 0 1.9 0 3.5-.2 6.4h-69.7c.9 14.5 12.6 24.1 27.3 24.1 12.4 0 20.7-5.7 25.3-13.5l14.9 10.6c-8 12.6-21.8 20.6-40.4 20.6-26.9 0-46.3-19.1-46.3-46.1.1-26.1 19.5-46.1 46.4-46.1zm-26.2 36.1h49.3c-2.1-12.8-12.4-19.7-23.8-19.7s-22.9 6.6-25.5 19.7z"/><path d="m259.8 65.9h19.5v11.9c5-7.1 15.8-13.6 28.5-13.6 24.3 0 42.7 20.7 42.7 46.1 0 25.3-18.4 46.1-42.7 46.1-12.8 0-23.6-6.6-28.5-13.7v48.9h-19.5zm44.5 16c-15.8 0-26.6 12.4-26.6 28.4s10.8 28.4 26.6 28.4c15.6 0 26.4-12.4 26.4-28.4s-10.8-28.4-26.4-28.4z"/><path d="m389.9 21.6h-19.5v132.9h19.5z"/><path d="m425.9 46.6c-7.1 0-13.1-5.8-13.1-13.1 0-7.1 6-12.9 13.1-12.9 7.3 0 12.9 5.9 12.9 12.9 0 7.3-5.6 13.1-12.9 13.1zm-9.7 19.3h19.5v88.6h-19.5z"/><path d="m502.3 156.3c-26.6 0-46.8-19.9-46.8-46.1s20.2-46.1 46.8-46.1c18.3 0 33.7 9.8 41.3 24.5l-17 9.2c-4.3-9-12.9-15.6-24.3-15.6-15.8 0-26.9 12.2-26.9 28s11.2 28 26.9 28c11.3 0 20-6.6 24.3-15.6l17 9.2c-7.6 14.8-23.1 24.5-41.3 24.5z"/><path d="m597.8 64.2c12.8 0 23.4 6.6 28.4 13.6v-11.9h19.5v88.6h-19.5v-11.9c-5 7.1-15.6 13.7-28.4 13.7-24.3 0-42.7-20.7-42.7-46.1 0-25.3 18.4-46 42.7-46zm3.6 17.7c-15.8 0-26.4 12.4-26.4 28.4s10.6 28.4 26.4 28.4 26.4-12.4 26.4-28.4-10.7-28.4-26.4-28.4z"/><path d="m679.1 154.6v-71.3h-18.5v-17.4h18.5v-24.6h19.5v24.6h33.6v17.4h-33.6v53.8h33.6v17.5z"/><path d="m141.8 65.9v17.5h-47.8v71.2h-19.5v-88.7z"/><path d="m141.8 33v17.4h-84.6v104.2h-19.5v-121.6z"/><path d="m141.8 0v17.4h-121.4v137.2h-19.500006v-154.6z"/><path d="m787.8 64.2c23.2 0 42.7 15.4 42.7 44 0 1.9 0 3.5-.2 6.4h-69.7c.9 14.5 12.6 24.1 27.3 24.1 12.4 0 20.7-5.7 25.3-13.5l14.9 10.6c-8 12.6-21.8 20.6-40.4 20.6-26.9 0-46.3-19.1-46.3-46.1.2-26.1 19.5-46.1 46.4-46.1zm-26.2 36.1h49.3c-2.1-12.8-12.4-19.7-23.8-19.7-11.3 0-22.8 6.6-25.5 19.7z"/></g></svg>