<svg fill="none" height="29" viewBox="0 0 126 29" width="126" xmlns="http://www.w3.org/2000/svg" xmlns:xlink="http://www.w3.org/1999/xlink"><clipPath id="a"><path d="m0 0h126v29h-126z"/></clipPath><g clip-path="url(#a)" fill="#000"><path d="m101.017 21.3736c-.03-1.2124.359-2.3978 1.1-3.3552.8-.9897 1.849-1.7468 3.039-2.1929 1.432-.5454 2.955-.8097 4.487-.7786.954.0056 1.906.0764 2.85.2118.91.1213 1.804.3382 2.669.647v-1.4715c.034-.6709-.072-1.3416-.311-1.9689-.24-.6272-.608-1.197-1.08-1.6725-1.095-.94317-2.512-1.41981-3.951-1.32837-1.093-.00306-2.177.20291-3.193.60687-1.134.4595-2.217 1.0351-3.233 1.7177l-1.237-2.41618c1.214-.86303 2.542-1.55284 3.945-2.04975 1.321-.45724 2.709-.68759 4.105-.68134 2.577 0 4.615.71569 6.112 2.14708 1.498 1.43139 2.246 3.42389 2.246 5.97749v8.5597c-.029.3222.06.6441.251.9047.11.1089.24.1944.383.2515s.296.0845.45.0806v2.6509c-.337.0572-.627.0916-.873.1202-.245.0287-.444.0401-.598.0401-.33.0248-.662-.0217-.973-.1363-.31-.1145-.593-.2945-.829-.5279-.371-.3832-.607-.8778-.673-1.4084l-.079-1.2883c-.897 1.1638-2.074 2.0783-3.421 2.6567-1.326.6042-2.763.9241-4.219.939-1.251.0207-2.488-.2663-3.604-.836-1.01-.5141-1.865-1.2912-2.474-2.2501-.592-.9419-.901-2.0353-.889-3.1491zm13.153 1.4257c.294-.3311.541-.7009.735-1.0993.16-.2926.254-.6172.274-.9505v-2.5078c-.815-.3148-1.656-.5544-2.514-.7157-.855-.1666-1.724-.251-2.595-.2519-1.467-.0688-2.924.2869-4.196 1.0249-.494.2782-.904.6851-1.187 1.1779s-.428 1.0531-.421 1.6219c.004.662.185 1.3108.525 1.878.371.6261.905 1.1388 1.545 1.4829.782.4089 1.656.6063 2.537.5725 1.039.0048 2.067-.2118 3.016-.6355.864-.3551 1.641-.892 2.281-1.5745z"/><path d="m122.591 27.6716v-20.38303h3.42v20.38303z"/><path d="m34.134 27.6716v-20.82959h5.9009v3.23499s2.3661-2.47921 4.7265-3.18346c1.9897-.57255 5.2737-.25765 6.5451.18895-.6288.75866-1.2151 1.55193-1.756 2.37611-.5699.8548-1.0622 1.7592-1.4709 2.7025-1.4312-.0486-2.853.2499-4.1449.8703-1.1788.7507-2.2591 1.6471-3.2156 2.6681v11.9721z"/><path d="m60.9133 28.0725c-1.6942.0276-3.3785-.2637-4.9659-.8588-1.3471-.5026-2.5745-1.2827-3.6033-2.2902-.9521-.9529-1.701-2.0906-2.2007-3.3438-.5038-1.2753-.7593-2.6359-.7526-4.0079-.017-1.9276.4351-3.8302 1.3171-5.5423.8875-1.6706 2.2225-3.05884 3.8541-4.00792 1.9413-1.07527 4.1354-1.60534 6.3513-1.53445 2.2164-.07386 4.4124.44586 6.3627 1.50582 1.6257.92858 2.9606 2.29495 3.8541 3.94495.8771 1.646 1.3299 3.4865 1.317 5.3534 0 .4008 0 .8073-.057 1.2195 0 .1661-.0399.3207-.057.4752h-15.9011l.0627.8245c.0292.7873.2924 1.5478.7557 2.1836.4634.6357 1.1057 1.1176 1.8442 1.3835.6644.2463 1.367.3723 2.0753.3721.935 0 1.8301-.2004 3.1528-1.2882h7.0355c-.6213 1.0363-1.3788 1.9838-2.2521 2.8169-1.0485.8878-2.2479 1.5783-3.5405 2.0383-1.4961.5184-3.0698.774-4.6523.7558zm-.1254-17.2969c-.7485-.0115-1.489.1553-2.1609.4867-.631.3187-1.1692.7961-1.5621 1.3855-.4136.6342-.6697 1.3587-.7469 2.1128l-.1026.8874h9.1221l-.1083-.8645c-.075-.7555-.3291-1.4819-.7412-2.1185-.3968-.5867-.9365-1.0618-1.5678-1.3798-.6611-.3358-1.3916-.5103-2.1323-.5096z"/><path d="m79.1349 27.6717-7.0127-20.82966h6.6706l4.5896 15.87696 4.6409-15.87696h5.9009l-7.0469 20.82966z"/><path d="m13.3583 17.1136h2.7879c-.0171-.8466-.2785-1.67-.7525-2.3704-.3552-.523-.8217-.9603-1.3658-1.2801-.5441-.3197-1.1521-.5141-1.7802-.5689-.628-.0548-1.2604.0313-1.8512.2521-.59085.2208-1.12545.5707-1.5651 1.0244-.58972.6047-.98669 1.3721-1.14027 2.2043-.16096.8328-.07371 1.6947.25082 2.4779s.87191 1.4528 1.57361 1.9251c.70094.4681 1.52424.7172 2.36604.7157h10.8782c-.2191.5508-.4783 1.0847-.7754 1.5974h-10.1142c-1.0182.0067-2.02069-.2523-2.90924-.7517s-1.63268-1.2221-2.15949-2.0971c-.52681-.8751-.81823-1.8726-.84571-2.8948s.20993-2.034.68895-2.9364c.47903-.9023 1.18325-1.6642 2.04368-2.211.86042-.5469 1.84751-.8598 2.86461-.9083s2.0293.1692 2.9375.6317c.9081.4625 1.681 1.154 2.243 2.0067.6392.972.982 2.1102.9863 3.275h2.7823c.011-1.7196-.4881-3.4035-1.4339-4.8371-.9457-1.4336-2.2952-2.55181-3.8763-3.21212s-3.3222-.83278-5.0013-.49541c-1.67911.33737-3.22012 1.1693-4.42653 2.38973-1.22087 1.2142-2.05475 2.7655-2.3957 4.4567-.34094 1.6912-.17356 3.4461.48088 5.0416s1.76639 2.9596 3.19458 3.919 3.10817 1.4708 4.82637 1.4691h7.8679c-1.4951 1.3713-3.3171 2.3322-5.29 2.7898-1.9728.4576-4.0299.3966-5.97237-.1773-1.9425-.5739-3.70478-1.6412-5.1166-3.0988-1.41181-1.4576-2.425433-3.2562-2.942936-5.2221-.720514-2.6332-.518454-5.435.572356-7.9365 1.09081-2.50151 3.00416-4.55079 5.41977-5.80482 2.40747-1.24369 5.16848-1.61525 7.81708-1.05199s5.0226 2.02685 6.7214 4.1438c1.0112 1.25871 1.757 2.71071 2.1921 4.26781.4352 1.5571.5506 3.1868.3393 4.79h-11.6023c-.2916-.0004-.5768-.086-.821-.2462-.2521-.1588-.4508-.3903-.5701-.6641-.1149-.2694-.1484-.5667-.0964-.855s.1873-.5549.389-.7666.4609-.3592.7455-.4242c.2845-.0649.5817-.0444.8547.059.2711.1051.5065.2859.6785.521.1862.2462.2917.5442.3022.8531z"/><path d="m126 0h-3.421v3.43534h3.421z"/></g></svg>