<svg fill="none" height="23" viewBox="0 0 130 23" width="130" xmlns="http://www.w3.org/2000/svg"><g fill="#2137fc"><path clip-rule="evenodd" d="m8.43253 6.89803c.94409-1.37962 1.76277-2.06178 2.98857-1.68284.7418.22931 1.0462 1.17619.7418 2.36429-.5354 2.08905-.7418 3.28822-.7418 4.71542 1.883-3.94666 5.3637-9.19211 6.8723-10.95639 1.0427-1.219436 2.5373-1.063926 3.0999-.791925.9142.441958.9625 1.400265.6469 2.316745-2.1831 6.34055-2.2591 9.72697-2.5272 13.01687 1.3568-3.6487 3.0064-7.08086 4.9985-9.49806.8394-1.15936 2.3104-1.5233 3.2396-1.14668s1.141 1.27768.9292 2.40683c-.5523 2.94451-.8264 4.32461-.8264 5.46531 1.009-.7717 1.8124-1.4237 3.6492-1.5727s5.6328.5822 5.6328.5822-2.1914.3724-3.3489.6562c-2.3728.5818-3.2014 1.2623-4.7374 3.5119-.4463.6536-1.1957 1.1555-2.0399 1.0917-.8443-.0639-1.4112-.595-1.6588-1.3123-.3443-.9969-.4466-2.4881 0-5.7151-2.1884 3.3294-3.3107 7.852-4.8101 10.8512-.3834.7668-1.0381 1.6406-1.9254 1.6406s-2.038-.3441-2.1874-2.9804c-.3827-6.7533.8931-12.12729.8931-12.12729-2.4849 3.93999-3.2785 6.23659-4.1428 7.43419-.8644 1.1976-1.7031 2.2347-2.7233 2.2091-1.02022-.0257-1.61397-1.1662-1.74306-2.2091-.1291-1.0429-.16625-2.3749.21081-4.8183-.9815.9815-1.84452 1.6462-3.3901 2.0624-1.54558.4163-3.39119.1514-5.53265-.2948 2.14146 0 5.74519-1.292 8.43253-5.21907z" fill-rule="evenodd"/><path d="m122.211 8.12396 3.113 8.81824-1.276 2.4173-4.332-11.23554zm-2.243 13.98154v-1.9532h1.411c.31 0 .581-.0386.813-.116.232-.0644.438-.1934.618-.3867.194-.1934.355-.4771.484-.8509l3.964-10.67474h2.437l-4.68 11.68034c-.348.8766-.786 1.5148-1.315 1.9144-.529.3997-1.186.5995-1.973.5995-.335 0-.651-.0193-.947-.058-.284-.0258-.554-.0773-.812-.1547z"/><path d="m113.298 8.12393h5.995v1.97247h-5.995zm6.015-4.73787v2.01117c-.129 0-.265 0-.407 0-.128 0-.264 0-.406 0-.593 0-.992.14182-1.199.42545-.193.28362-.29.66394-.29 1.14095v10.71337h-2.34v-10.71337c0-.87666.142-1.57929.426-2.10787.283-.54147.683-.93468 1.199-1.17963.515-.25784 1.115-.38676 1.798-.38676.194 0 .393.00644.6.01934.219.01289.425.03867.619.07735z"/><path d="m109.449 17.677v-9.55309h2.36v9.55309zm1.161-11.46758c-.4 0-.742-.13537-1.025-.4061-.271-.28363-.406-.62527-.406-1.02493s.135-.73485.406-1.00559c.283-.27073.625-.4061 1.025-.4061.399 0 .735.13537 1.005.4061.284.27074.426.60593.426 1.00559s-.142.7413-.426 1.02493c-.27.27073-.606.4061-1.005.4061z"/><path d="m100.421 17.677h-2.3595v-14.38763h2.3785v6.0722c.297-.46411.709-.83154 1.238-1.10227.541-.28363 1.16-.42545 1.856-.42545 1.173 0 2.063.35454 2.669 1.06361.619.70907.928 1.67594.928 2.90074v5.8788h-2.359v-5.318c0-.5415-.084-.9862-.252-1.3343-.167-.3481-.399-.606-.696-.7736-.296-.1805-.644-.2707-1.044-.2707-.49 0-.915.1096-1.276.3287-.348.2063-.619.4964-.812.8703-.181.3738-.271.7993-.271 1.2763z"/><path d="m86.8687 12.8811c0-.9798.1998-1.85.5994-2.6107.4126-.76062.9734-1.35366 1.6825-1.7791.7219-.43833 1.5535-.6575 2.4946-.6575 1.3021 0 2.3657.34164 3.1908 1.02493.838.67039 1.3215 1.57927 1.4504 2.72667h-2.3593c-.1418-.5415-.4061-.9476-.7929-1.2183-.3738-.2836-.8444-.42543-1.4116-.42543-.49 0-.9283.12243-1.315.36743-.3739.2321-.664.5673-.8703 1.0056-.2062.4383-.3094.9605-.3094 1.5664s.0967 1.128.2901 1.5664c.1934.4383.4706.78.8315 1.0249.3739.2321.8122.3481 1.315.3481.5931 0 1.083-.1418 1.4697-.4254.3997-.2837.664-.6898.7929-1.2184h2.3786c-.1031.7478-.3674 1.4053-.7929 1.9725-.4125.5544-.9475.9927-1.605 1.315-.6575.3095-1.4053.4642-2.2433.4642-.9669 0-1.8113-.2063-2.5333-.6189-.7219-.4254-1.2827-1.012-1.6824-1.7597-.3868-.7607-.5801-1.6502-.5801-2.6687z"/><path d="m80.9386 17.9284c-.9412 0-1.7792-.2128-2.514-.6382-.722-.4383-1.2892-1.0314-1.7018-1.7791-.4125-.7607-.6188-1.6309-.6188-2.6107 0-.9927.1998-1.8693.5995-2.63.3996-.76062.9605-1.35366 1.6824-1.7791.722-.43833 1.5471-.6575 2.4753-.6575.9669 0 1.7985.20628 2.4946.61882.6962.39966 1.2312.96047 1.6051 1.68248.3868.7219.5802 1.5857.5802 2.5913v.7155l-8.1994.0193.0386-1.5084h5.8208c0-.6575-.2127-1.186-.6381-1.5857-.4126-.39965-.9734-.59948-1.6825-.59948-.5543 0-1.0249.11604-1.4116.34808-.3739.2321-.6575.5802-.8509 1.0443s-.2901 1.0313-.2901 1.7017c0 1.0314.2192 1.8114.6575 2.34.4512.5285 1.1152.7928 1.9918.7928.6446 0 1.1732-.1224 1.5858-.3674.4254-.2449.7026-.593.8315-1.0443h2.1852c-.2062 1.0443-.7219 1.863-1.547 2.456-.8122.593-1.8436.8896-3.0941.8896z"/><path d="m70.1744 17.9284c-.9411 0-1.7791-.2128-2.514-.6382-.7219-.4383-1.2892-1.0314-1.7017-1.7791-.4126-.7607-.6189-1.6309-.6189-2.6107 0-.9927.1999-1.8693.5995-2.63.3997-.76062.9605-1.35366 1.6825-1.7791.7219-.43833 1.547-.6575 2.4753-.6575.9669 0 1.7984.20628 2.4946.61882.6962.39966 1.2312.96047 1.6051 1.68248.3867.7219.5801 1.5857.5801 2.5913v.7155l-8.1994.0193.0387-1.5084h5.8208c0-.6575-.2127-1.186-.6382-1.5857-.4125-.39965-.9733-.59948-1.6824-.59948-.5544 0-1.0249.11604-1.4117.34808-.3739.2321-.6575.5802-.8509 1.0443s-.2901 1.0313-.2901 1.7017c0 1.0314.2192 1.8114.6575 2.34.4513.5285 1.1152.7928 1.9919.7928.6446 0 1.1732-.1224 1.5857-.3674.4255-.2449.7026-.593.8316-1.0443h2.1852c-.2063 1.0443-.722 1.863-1.5471 2.456-.8122.593-1.8436.8896-3.0941.8896z"/><path d="m53.9272 22.1054v-13.98152h2.1853l.1547 1.45036c.2836-.55436.7219-.9798 1.315-1.27632.593-.30941 1.2441-.46412 1.9531-.46412.9154 0 1.7018.20628 2.3593.61882.6704.41255 1.1925.98626 1.5664 1.72108.3739.7349.5608 1.6051.5608 2.6107 0 .9927-.174 1.8758-.5221 2.6493-.3481.7736-.8574 1.3859-1.5277 1.8372-.6575.4383-1.4633.6575-2.4173.6575-.7091 0-1.3601-.1354-1.9532-.4061-.5801-.2708-1.0185-.6446-1.315-1.1217v5.7048zm2.3786-9.205c0 .5673.1096 1.0701.3288 1.5084s.5286.7864.9282 1.0443c.4126.2449.8896.3674 1.4311.3674.5543 0 1.0313-.1225 1.431-.3674.3997-.2579.7026-.606.9089-1.0443s.3094-.9411.3094-1.5084c0-.5672-.1031-1.07-.3094-1.5084-.2063-.4383-.5092-.7799-.9089-1.0249-.3997-.2578-.8767-.38675-1.431-.38675-.5415 0-1.0185.12245-1.4311.36745-.3996.2449-.709.5866-.9282 1.0249s-.3288.9476-.3288 1.5277z"/><path d="m42.0191 7.48583c0-.8251.2127-1.55351.6381-2.18523.4255-.63171 1.0121-1.12161 1.7598-1.4697.7606-.36098 1.6373-.54147 2.63-.54147.954 0 1.7791.1676 2.4753.50279.7091.3352 1.257.81221 1.6438 1.43103.3996.61883.6123 1.35368.6381 2.20456h-2.4753c-.0258-.60593-.2449-1.07649-.6575-1.41169-.4125-.34809-.9669-.52213-1.6631-.52213-.7606 0-1.373.17404-1.8371.52213-.4512.3352-.6768.79931-.6768 1.39235 0 .5028.1353.90245.4061 1.19897.2836.28363.7219.49635 1.315.63817l2.2239.50279c1.2118.2578 2.1143.7026 2.7073 1.3343.5931.6189.8896 1.4569.8896 2.514 0 .8638-.2127 1.6244-.6382 2.2819-.4254.6575-1.0314 1.1668-1.8178 1.5277-.7735.3481-1.6824.5222-2.7267.5222-.9927 0-1.8629-.1676-2.6106-.5028-.7478-.3481-1.3344-.8316-1.7598-1.4504-.4126-.6188-.6317-1.3472-.6575-2.1852h2.4753c.0129.593.2449 1.0636.6962 1.4117.4641.3352 1.0893.5028 1.8758.5028.8251 0 1.4761-.1676 1.9531-.5028.4899-.3481.7349-.8058.7349-1.373 0-.4899-.1289-.8767-.3868-1.1603-.2578-.2965-.6768-.5028-1.257-.6188l-2.2432-.5028c-1.199-.2579-2.1079-.722-2.7267-1.3924-.6188-.68328-.9282-1.57284-.9282-2.66867z"/></g></svg>