<svg fill="none" height="512" viewBox="0 0 512 512" width="512" xmlns="http://www.w3.org/2000/svg" xmlns:xlink="http://www.w3.org/1999/xlink"><clipPath id="a"><path d="m0 0h512v512h-512z"/></clipPath><g clip-path="url(#a)"><path clip-rule="evenodd" d="m50 0h412c27.614 0 50 22.3858 50 50v412c0 27.614-22.386 50-50 50h-412c-27.6142 0-50-22.386-50-50v-412c0-27.6142 22.3858-50 50-50zm266.939 457.485v-50.061c9.077 7.614 18.937 13.324 29.579 17.13 10.643 3.807 21.389 5.71 32.24 5.71 6.365 0 11.92-.573 16.668-1.721 4.747-1.147 8.712-2.737 11.894-4.771s5.556-4.432 7.121-7.196 2.348-5.762 2.348-8.995c0-4.381-1.252-8.292-3.756-11.733-2.505-3.442-5.922-6.623-10.252-9.543-4.329-2.92-9.468-5.736-15.415-8.448s-12.364-5.475-19.25-8.291c-17.529-7.301-30.597-16.218-39.204-26.751-8.608-10.534-12.912-23.258-12.912-38.172 0-11.681 2.348-21.719 7.043-30.114 4.695-8.396 11.085-15.305 19.171-20.729 8.087-5.423 17.451-9.412 28.093-11.967s21.91-3.833 33.805-3.833c11.685 0 22.041.704 31.066 2.112s17.346 3.572 24.962 6.492v46.776c-3.756-2.608-7.851-4.902-12.285-6.884-4.435-1.981-8.999-3.624-13.694-4.928-4.696-1.303-9.365-2.268-14.008-2.894-4.643-.625-9.051-.938-13.224-.938-5.739 0-10.955.547-15.651 1.642-4.695 1.095-8.659 2.634-11.894 4.615-3.234 1.982-5.738 4.354-7.512 7.118s-2.661 5.867-2.661 9.308c0 3.755.992 7.118 2.974 10.091 1.982 2.972 4.799 5.788 8.451 8.448 3.652 2.659 8.086 5.266 13.303 7.822 5.217 2.555 11.112 5.188 17.685 7.9 8.973 3.754 17.033 7.743 24.18 11.967s13.277 8.996 18.389 14.315c5.113 5.319 9.025 11.394 11.738 18.225s4.069 14.783 4.069 23.857c0 12.515-2.374 23.022-7.121 31.522s-11.19 15.384-19.328 20.65c-8.138 5.267-17.607 9.048-28.406 11.342-10.799 2.295-22.197 3.442-34.196 3.442-12.312 0-24.023-1.043-35.135-3.129s-20.737-5.214-28.875-9.386zm-19.939-173.403h-64.22v182.918h-50.874v-182.918h-63.906v-41.082h179z" fill="#3178c6" fill-rule="evenodd"/></g></svg>