<svg fill="none" height="48" viewBox="0 0 204 48" width="204" xmlns="http://www.w3.org/2000/svg"><g fill="#000"><path d="m33.5592 40.911 5.4742-3.2131-9.8774-15.292-4.4031 2.6181 8.7468 15.887zm-20.2307 3.9867 5.5337 3.0941 8.5088-16.0656-4.4627-2.4991-9.5203 15.4706zm-13.3285-9.1633 18.2672-.7736-.1191-5.0576-18.1481-.5356zm40.3424-14.1615-.0595-6.3073-18.2671.7736v5.1171l18.2671.4166zm-33.67816-11.60295-5.4147 3.21315 9.75836 15.3515 4.3436-2.5586zm20.17126-3.80814-5.4742-3.15361-8.4493 16.0656 4.3436 2.5586 9.5204-15.47059z"/><path d="m158.004 0v8.8682h12.606v5.3209h-12.606v18.4332c0 1.3936.359 2.4915 1.077 3.2939.76.8024 1.837 1.2035 3.23 1.2035h8.172v5.321h-8.488c-3.421 0-5.955-.8235-7.602-2.4705-1.647-1.6891-2.47-4.0751-2.47-7.1579v-18.6232h-8.995v-5.3209h8.995v-8.8682z"/><path clip-rule="evenodd" d="m172.929 25.6545c0-3.5473.633-6.63 1.9-9.2482 1.267-2.6605 3.062-4.7086 5.384-6.1444 2.365-1.43584 5.11-2.15375 8.235-2.15375 2.618 0 5.004.59122 7.158 1.77365 2.196 1.1824 3.969 3.0405 5.321 5.5743 1.393 2.5338 2.175 5.7221 2.344 9.565l.063 2.4071h-24.008c.254 3.2094 1.162 5.7009 2.724 7.4746 1.605 1.7736 3.738 2.6604 6.398 2.6604 1.731 0 3.294-.4645 4.687-1.3935 1.436-.9291 2.513-2.2382 3.231-3.9274l6.461.5068c-.971 3.1672-2.787 5.701-5.447 7.6013-2.619 1.9003-5.596 2.8505-8.932 2.8505-3.125 0-5.87-.7179-8.235-2.1537-2.322-1.4358-4.117-3.4628-5.384-6.0811-1.267-2.6604-1.9-5.7643-1.9-9.3116zm23.817-3.1672c-.464-3.0405-1.436-5.2576-2.914-6.6511-1.478-1.3936-3.273-2.0904-5.384-2.0904-2.449 0-4.455.7601-6.018 2.2804-1.52 1.5203-2.512 3.674-2.977 6.4611z" fill-rule="evenodd"/><path clip-rule="evenodd" d="m117.552 11.0853c-2.534 1.9426-4.139 4.5186-4.815 7.728l6.462.4434c.38-1.6047 1.224-2.9138 2.533-3.9273 1.352-1.0557 2.978-1.5836 4.878-1.5836 2.323 0 4.138.6546 5.447 1.9637 1.352 1.3091 2.049 3.2305 2.091 5.7643l-9.122 1.7736c-2.914.549-5.278 1.2036-7.094 1.9637-1.774.7179-3.189 1.7525-4.244 3.1039-1.014 1.3513-1.521 3.125-1.521 5.3209 0 1.9426.549 3.6528 1.647 5.1309 1.098 1.4358 2.555 2.5338 4.371 3.2939 1.858.7601 3.927 1.1402 6.208 1.1402 2.534 0 4.73-.5701 6.588-1.7103 1.9-1.1402 3.188-2.5338 3.864-4.1807.337 1.5625 1.119 2.8082 2.343 3.7373 1.225.929 2.809 1.3936 4.751 1.3936h1.71v-5.321h-1.393c-.676 0-1.183-.1689-1.52-.5067-.338-.3801-.507-.908-.507-1.5836v-12.8589c0-4.5608-1.225-8.0447-3.674-10.4518-2.407-2.4071-5.701-3.61065-9.882-3.61065-3.547 0-6.588.9924-9.121 2.97715zm2.66 25.5911c-1.098-.8023-1.647-1.8581-1.647-3.1672-.042-1.2246.232-2.1748.824-2.8505.591-.7179 1.351-1.2246 2.28-1.5202.971-.2957 2.344-.6124 4.117-.9502l1.204-.19 7.285-1.2669v1.4569c0 2.027-.402 3.7795-1.204 5.2576-.802 1.4358-1.9 2.5337-3.294 3.2939-1.351.7601-2.893 1.1402-4.624 1.1402-2.154 0-3.801-.4012-4.941-1.2036z" fill-rule="evenodd"/><path d="m96.293 8.86829.4511 6.22551c.4756-1.8225 1.2331-3.222 2.2727-4.1985 1.4362-1.35134 3.4412-2.02701 6.0172-2.02701h6.842v5.32091h-6.651c-1.69 0-3.083.3167-4.181.9502-1.0559.6334-1.8583 1.5625-2.4073 2.7871-.5067 1.2247-.7601 2.7661-.7601 4.6241v14.5692h10.7684v5.321h-25.401v-5.321h8.6149v-22.9306h-8.6149v-5.32091z"/><path clip-rule="evenodd" d="m58.2477 41.0472c2.3649 1.4358 5.0887 2.1537 8.1715 2.1537 3.0827 0 5.7854-.7179 8.108-2.1537 2.3649-1.4358 4.1807-3.4628 5.4476-6.0811 1.3091-2.6604 1.9637-5.7643 1.9637-9.3116s-.6546-6.63-1.9637-9.2482c-1.2669-2.6605-3.0827-4.7086-5.4476-6.1444-2.3226-1.43584-5.0253-2.15375-8.108-2.15375-3.0828 0-5.8066.71791-8.1715 2.15375-2.3226 1.4358-4.1384 3.4839-5.4476 6.1444-1.2668 2.6182-1.9003 5.7009-1.9003 9.2482s.6335 6.6512 1.9003 9.3116c1.3092 2.6183 3.125 4.6453 5.4476 6.0811zm14.9493-6.5878c-1.6047 2.0692-3.864 3.1038-6.7778 3.1038-2.9139 0-5.1732-1.0346-6.7779-3.1038-1.6047-2.1115-2.4071-5.0465-2.4071-8.8049s.8024-6.6722 2.4071-8.7415c1.6047-2.1115 3.864-3.1672 6.7779-3.1672 2.9138 0 5.1731 1.0557 6.7778 3.1672 1.6047 2.0693 2.4071 4.9831 2.4071 8.7415s-.8024 6.6934-2.4071 8.8049z" fill-rule="evenodd"/></g></svg>